<svg xmlns="http://www.w3.org/2000/svg" viewBox="0 0 1600 900" width="1600" height="900"><defs><radialGradient id="fade" cx="0.625" cy="0.5222222222222223" r="0.78"><stop offset="0%" stop-color="#fff" stop-opacity="0.95"></stop><stop offset="42%" stop-color="#fff" stop-opacity="0.5"></stop><stop offset="100%" stop-color="#fff" stop-opacity="0"></stop></radialGradient><mask id="m"><rect width="1600" height="900" fill="url(#fade)"></rect></mask><linearGradient id="stroke" x1="0" y1="0" x2="1" y2="1"><stop offset="0%" stop-color="#35D9FF"></stop><stop offset="60%" stop-color="#168CFF"></stop><stop offset="100%" stop-color="#174EFF"></stop></linearGradient></defs><g mask="url(#m)"><g fill="none" stroke="url(#stroke)" stroke-width="0.9" stroke-opacity="0.42"><path d="M-119.9,-99.9 L-103.9,-99.9 L-87.9,-99.9 L-71.9,-99.9 L-55.9,-99.9 L-39.9,-99.9 L-23.9,-99.9 L-7.9,-99.9 L8.1,-99.9 L24.1,-99.9 L40.1,-99.9 L56.1,-99.9 L72.1,-99.9 L88.1,-99.9 L104.1,-99.9 L120.1,-99.9 L136.1,-99.9 L152.1,-99.9 L168.1,-99.9 L184.1,-99.9 L200.1,-99.9 L216.1,-99.9 L232.1,-99.9 L248.2,-99.9 L264.2,-99.9 L280.2,-99.9 L296.2,-99.9 L312.2,-99.9 L328.2,-99.9 L344.2,-99.8 L360.2,-99.8 L376.2,-99.8 L392.2,-99.8 L408.2,-99.8 L424.2,-99.8 L440.2,-99.8 L456.2,-99.8 L472.2,-99.8 L488.2,-99.8 L504.2,-99.8 L520.2,-99.8 L536.2,-99.8 L552.2,-99.8 L568.2,-99.7 L584.2,-99.7 L600.2,-99.7 L616.2,-99.7 L632.2,-99.7 L648.2,-99.7 L664.2,-99.7 L680.2,-99.7 L696.2,-99.7 L712.2,-99.7 L728.2,-99.6 L744.2,-99.6 L760.2,-99.6 L776.2,-99.6 L792.2,-99.6 L808.1,-99.6 L824.1,-99.6 L840.1,-99.6 L856.1,-99.6 L872.1,-99.6 L888.1,-99.6 L904.1,-99.5 L920.1,-99.5 L936.1,-99.5 L952.0,-99.5 L968.0,-99.5 L984.0,-99.5 L1000.0,-99.5 L1016.0,-99.5 L1032.0,-99.5 L1048.0,-99.5 L1063.9,-99.5 L1079.9,-99.5 L1095.9,-99.5 L1111.9,-99.6 L1127.9,-99.6 L1143.9,-99.6 L1159.9,-99.6 L1175.9,-99.6 L1191.9,-99.6 L1207.8,-99.6 L1223.8,-99.6 L1239.8,-99.6 L1255.8,-99.6 L1271.8,-99.6 L1287.8,-99.7 L1303.8,-99.7 L1319.8,-99.7 L1335.8,-99.7 L1351.8,-99.7 L1367.8,-99.7 L1383.8,-99.7 L1399.8,-99.7 L1415.8,-99.7 L1431.8,-99.7 L1447.8,-99.8 L1463.8,-99.8 L1479.8,-99.8 L1495.8,-99.8 L1511.8,-99.8 L1527.8,-99.8 L1543.8,-99.8 L1559.8,-99.8 L1575.8,-99.8 L1591.8,-99.8 L1607.8,-99.8 L1623.8,-99.8 L1639.8,-99.8 L1655.8,-99.8 L1671.8,-99.9 L1687.8,-99.9 L1703.8,-99.9 L1719.8,-99.9"></path><path d="M-119.9,-47.9 L-103.9,-47.9 L-87.9,-47.9 L-71.9,-47.9 L-55.9,-47.9 L-39.9,-47.9 L-23.9,-47.9 L-7.9,-47.9 L8.1,-47.9 L24.1,-47.9 L40.1,-47.9 L56.1,-47.9 L72.1,-47.9 L88.1,-47.9 L104.1,-47.9 L120.1,-47.9 L136.1,-47.9 L152.1,-47.9 L168.2,-47.9 L184.2,-47.9 L200.2,-47.9 L216.2,-47.9 L232.2,-47.9 L248.2,-47.9 L264.2,-47.9 L280.2,-47.9 L296.2,-47.9 L312.2,-47.9 L328.2,-47.8 L344.2,-47.8 L360.2,-47.8 L376.2,-47.8 L392.2,-47.8 L408.2,-47.8 L424.2,-47.8 L440.2,-47.8 L456.2,-47.8 L472.2,-47.8 L488.2,-47.8 L504.2,-47.8 L520.2,-47.7 L536.2,-47.7 L552.2,-47.7 L568.2,-47.7 L584.2,-47.7 L600.2,-47.7 L616.2,-47.7 L632.2,-47.7 L648.2,-47.7 L664.2,-47.6 L680.2,-47.6 L696.2,-47.6 L712.2,-47.6 L728.2,-47.6 L744.2,-47.6 L760.2,-47.6 L776.2,-47.5 L792.2,-47.5 L808.2,-47.5 L824.2,-47.5 L840.2,-47.5 L856.2,-47.5 L872.1,-47.5 L888.1,-47.5 L904.1,-47.5 L920.1,-47.4 L936.1,-47.4 L952.1,-47.4 L968.0,-47.4 L984.0,-47.4 L1000.0,-47.4 L1016.0,-47.4 L1032.0,-47.4 L1047.9,-47.4 L1063.9,-47.4 L1079.9,-47.4 L1095.9,-47.5 L1111.9,-47.5 L1127.9,-47.5 L1143.8,-47.5 L1159.8,-47.5 L1175.8,-47.5 L1191.8,-47.5 L1207.8,-47.5 L1223.8,-47.5 L1239.8,-47.6 L1255.8,-47.6 L1271.8,-47.6 L1287.8,-47.6 L1303.8,-47.6 L1319.8,-47.6 L1335.8,-47.6 L1351.8,-47.7 L1367.8,-47.7 L1383.8,-47.7 L1399.8,-47.7 L1415.8,-47.7 L1431.8,-47.7 L1447.8,-47.7 L1463.8,-47.7 L1479.8,-47.7 L1495.8,-47.8 L1511.8,-47.8 L1527.8,-47.8 L1543.8,-47.8 L1559.8,-47.8 L1575.8,-47.8 L1591.8,-47.8 L1607.8,-47.8 L1623.8,-47.8 L1639.8,-47.8 L1655.8,-47.8 L1671.8,-47.8 L1687.8,-47.9 L1703.8,-47.9 L1719.8,-47.9"></path><path d="M-119.9,4.1 L-103.9,4.1 L-87.9,4.1 L-71.9,4.1 L-55.9,4.1 L-39.9,4.1 L-23.9,4.1 L-7.9,4.1 L8.1,4.1 L24.1,4.1 L40.1,4.1 L56.1,4.1 L72.1,4.1 L88.1,4.1 L104.1,4.1 L120.2,4.1 L136.2,4.1 L152.2,4.1 L168.2,4.1 L184.2,4.1 L200.2,4.1 L216.2,4.1 L232.2,4.1 L248.2,4.1 L264.2,4.1 L280.2,4.1 L296.2,4.1 L312.2,4.2 L328.2,4.2 L344.2,4.2 L360.2,4.2 L376.2,4.2 L392.2,4.2 L408.2,4.2 L424.2,4.2 L440.2,4.2 L456.3,4.2 L472.3,4.2 L488.3,4.2 L504.3,4.3 L520.3,4.3 L536.3,4.3 L552.3,4.3 L568.3,4.3 L584.3,4.3 L600.3,4.3 L616.3,4.4 L632.3,4.4 L648.3,4.4 L664.3,4.4 L680.3,4.4 L696.3,4.4 L712.3,4.5 L728.3,4.5 L744.3,4.5 L760.3,4.5 L776.3,4.5 L792.3,4.6 L808.3,4.6 L824.2,4.6 L840.2,4.6 L856.2,4.6 L872.2,4.6 L888.2,4.7 L904.2,4.7 L920.1,4.7 L936.1,4.7 L952.1,4.7 L968.1,4.7 L984.0,4.7 L1000.0,4.7 L1016.0,4.7 L1031.9,4.7 L1047.9,4.7 L1063.9,4.7 L1079.9,4.7 L1095.8,4.7 L1111.8,4.7 L1127.8,4.6 L1143.8,4.6 L1159.8,4.6 L1175.8,4.6 L1191.7,4.6 L1207.7,4.6 L1223.7,4.5 L1239.7,4.5 L1255.7,4.5 L1271.7,4.5 L1287.7,4.5 L1303.7,4.4 L1319.7,4.4 L1335.7,4.4 L1351.7,4.4 L1367.7,4.4 L1383.7,4.4 L1399.7,4.3 L1415.7,4.3 L1431.7,4.3 L1447.7,4.3 L1463.7,4.3 L1479.7,4.3 L1495.7,4.3 L1511.7,4.2 L1527.7,4.2 L1543.7,4.2 L1559.8,4.2 L1575.8,4.2 L1591.8,4.2 L1607.8,4.2 L1623.8,4.2 L1639.8,4.2 L1655.8,4.2 L1671.8,4.2 L1687.8,4.2 L1703.8,4.1 L1719.8,4.1"></path><path d="M-119.9,56.1 L-103.9,56.1 L-87.9,56.1 L-71.9,56.1 L-55.9,56.1 L-39.9,56.1 L-23.9,56.1 L-7.9,56.1 L8.1,56.1 L24.1,56.1 L40.1,56.1 L56.1,56.1 L72.2,56.1 L88.2,56.1 L104.2,56.1 L120.2,56.1 L136.2,56.1 L152.2,56.1 L168.2,56.1 L184.2,56.1 L200.2,56.1 L216.2,56.1 L232.2,56.1 L248.2,56.1 L264.2,56.1 L280.2,56.1 L296.2,56.2 L312.2,56.2 L328.2,56.2 L344.2,56.2 L360.2,56.2 L376.3,56.2 L392.3,56.2 L408.3,56.2 L424.3,56.2 L440.3,56.2 L456.3,56.2 L472.3,56.3 L488.3,56.3 L504.3,56.3 L520.3,56.3 L536.3,56.3 L552.3,56.3 L568.3,56.3 L584.3,56.4 L600.4,56.4 L616.4,56.4 L632.4,56.4 L648.4,56.4 L664.4,56.5 L680.4,56.5 L696.4,56.5 L712.4,56.5 L728.4,56.6 L744.4,56.6 L760.4,56.6 L776.4,56.6 L792.4,56.7 L808.3,56.7 L824.3,56.7 L840.3,56.7 L856.3,56.8 L872.3,56.8 L888.2,56.8 L904.2,56.8 L920.2,56.8 L936.1,56.9 L952.1,56.9 L968.1,56.9 L984.0,56.9 L1000.0,56.9 L1016.0,56.9 L1031.9,56.9 L1047.9,56.9 L1063.9,56.9 L1079.8,56.8 L1095.8,56.8 L1111.8,56.8 L1127.7,56.8 L1143.7,56.8 L1159.7,56.7 L1175.7,56.7 L1191.7,56.7 L1207.6,56.7 L1223.6,56.6 L1239.6,56.6 L1255.6,56.6 L1271.6,56.6 L1287.6,56.5 L1303.6,56.5 L1319.6,56.5 L1335.6,56.5 L1351.6,56.4 L1367.6,56.4 L1383.6,56.4 L1399.6,56.4 L1415.7,56.4 L1431.7,56.3 L1447.7,56.3 L1463.7,56.3 L1479.7,56.3 L1495.7,56.3 L1511.7,56.3 L1527.7,56.3 L1543.7,56.2 L1559.7,56.2 L1575.7,56.2 L1591.7,56.2 L1607.7,56.2 L1623.7,56.2 L1639.8,56.2 L1655.8,56.2 L1671.8,56.2 L1687.8,56.2 L1703.8,56.2 L1719.8,56.1"></path><path d="M-119.9,108.1 L-103.9,108.1 L-87.9,108.1 L-71.9,108.1 L-55.9,108.1 L-39.9,108.1 L-23.9,108.1 L-7.9,108.1 L8.1,108.1 L24.1,108.1 L40.2,108.1 L56.2,108.1 L72.2,108.1 L88.2,108.1 L104.2,108.1 L120.2,108.1 L136.2,108.1 L152.2,108.1 L168.2,108.1 L184.2,108.1 L200.2,108.1 L216.2,108.1 L232.2,108.1 L248.2,108.1 L264.2,108.1 L280.2,108.1 L296.2,108.2 L312.2,108.2 L328.3,108.2 L344.3,108.2 L360.3,108.2 L376.3,108.2 L392.3,108.2 L408.3,108.2 L424.3,108.2 L440.3,108.2 L456.3,108.2 L472.3,108.3 L488.4,108.3 L504.4,108.3 L520.4,108.3 L536.4,108.3 L552.4,108.3 L568.4,108.4 L584.4,108.4 L600.4,108.4 L616.4,108.4 L632.5,108.5 L648.5,108.5 L664.5,108.5 L680.5,108.5 L696.5,108.6 L712.5,108.6 L728.5,108.6 L744.5,108.7 L760.5,108.7 L776.5,108.8 L792.5,108.8 L808.5,108.8 L824.5,108.9 L840.4,108.9 L856.4,109.0 L872.4,109.0 L888.3,109.0 L904.3,109.1 L920.3,109.1 L936.2,109.1 L952.2,109.1 L968.1,109.2 L984.1,109.2 L1000.0,109.2 L1015.9,109.2 L1031.9,109.2 L1047.8,109.1 L1063.8,109.1 L1079.7,109.1 L1095.7,109.1 L1111.7,109.0 L1127.6,109.0 L1143.6,109.0 L1159.6,108.9 L1175.5,108.9 L1191.5,108.8 L1207.5,108.8 L1223.5,108.8 L1239.5,108.7 L1255.5,108.7 L1271.5,108.6 L1287.5,108.6 L1303.5,108.6 L1319.5,108.5 L1335.5,108.5 L1351.5,108.5 L1367.5,108.5 L1383.6,108.4 L1399.6,108.4 L1415.6,108.4 L1431.6,108.4 L1447.6,108.3 L1463.6,108.3 L1479.6,108.3 L1495.6,108.3 L1511.6,108.3 L1527.7,108.3 L1543.7,108.2 L1559.7,108.2 L1575.7,108.2 L1591.7,108.2 L1607.7,108.2 L1623.7,108.2 L1639.7,108.2 L1655.7,108.2 L1671.7,108.2 L1687.8,108.2 L1703.8,108.2 L1719.8,108.1"></path><path d="M-119.9,160.1 L-103.9,160.1 L-87.9,160.1 L-71.9,160.1 L-55.9,160.1 L-39.9,160.1 L-23.9,160.1 L-7.9,160.1 L8.2,160.1 L24.2,160.1 L40.2,160.1 L56.2,160.1 L72.2,160.1 L88.2,160.1 L104.2,160.1 L120.2,160.1 L136.2,160.1 L152.2,160.1 L168.2,160.1 L184.2,160.1 L200.2,160.1 L216.2,160.1 L232.2,160.1 L248.2,160.1 L264.2,160.1 L280.3,160.1 L296.3,160.2 L312.3,160.2 L328.3,160.2 L344.3,160.2 L360.3,160.2 L376.3,160.2 L392.3,160.2 L408.3,160.2 L424.3,160.2 L440.4,160.2 L456.4,160.3 L472.4,160.3 L488.4,160.3 L504.4,160.3 L520.4,160.3 L536.5,160.3 L552.5,160.4 L568.5,160.4 L584.5,160.4 L600.5,160.4 L616.5,160.5 L632.6,160.5 L648.6,160.5 L664.6,160.6 L680.6,160.6 L696.6,160.7 L712.6,160.7 L728.7,160.7 L744.7,160.8 L760.7,160.9 L776.7,160.9 L792.7,161.0 L808.7,161.0 L824.7,161.1 L840.6,161.2 L856.6,161.2 L872.6,161.3 L888.5,161.3 L904.5,161.4 L920.4,161.5 L936.3,161.5 L952.3,161.5 L968.2,161.6 L984.1,161.6 L1000.0,161.6 L1015.9,161.6 L1031.8,161.6 L1047.7,161.5 L1063.7,161.5 L1079.6,161.5 L1095.5,161.4 L1111.5,161.3 L1127.4,161.3 L1143.4,161.2 L1159.4,161.2 L1175.3,161.1 L1191.3,161.0 L1207.3,161.0 L1223.3,160.9 L1239.3,160.9 L1255.3,160.8 L1271.3,160.7 L1287.4,160.7 L1303.4,160.7 L1319.4,160.6 L1335.4,160.6 L1351.4,160.5 L1367.4,160.5 L1383.5,160.5 L1399.5,160.4 L1415.5,160.4 L1431.5,160.4 L1447.5,160.4 L1463.5,160.3 L1479.6,160.3 L1495.6,160.3 L1511.6,160.3 L1527.6,160.3 L1543.6,160.3 L1559.6,160.2 L1575.7,160.2 L1591.7,160.2 L1607.7,160.2 L1623.7,160.2 L1639.7,160.2 L1655.7,160.2 L1671.7,160.2 L1687.7,160.2 L1703.7,160.2 L1719.7,160.1"></path><path d="M-119.9,212.1 L-103.9,212.1 L-87.9,212.1 L-71.9,212.1 L-55.9,212.1 L-39.9,212.1 L-23.9,212.1 L-7.8,212.1 L8.2,212.1 L24.2,212.1 L40.2,212.1 L56.2,212.1 L72.2,212.1 L88.2,212.1 L104.2,212.1 L120.2,212.1 L136.2,212.1 L152.2,212.1 L168.2,212.1 L184.2,212.1 L200.2,212.1 L216.2,212.1 L232.2,212.1 L248.3,212.1 L264.3,212.1 L280.3,212.1 L296.3,212.1 L312.3,212.2 L328.3,212.2 L344.3,212.2 L360.3,212.2 L376.3,212.2 L392.4,212.2 L408.4,212.2 L424.4,212.2 L440.4,212.2 L456.4,212.3 L472.4,212.3 L488.5,212.3 L504.5,212.3 L520.5,212.3 L536.5,212.4 L552.6,212.4 L568.6,212.4 L584.6,212.4 L600.6,212.5 L616.7,212.5 L632.7,212.5 L648.7,212.6 L664.8,212.6 L680.8,212.7 L696.8,212.7 L712.8,212.8 L728.9,212.9 L744.9,212.9 L760.9,213.0 L777.0,213.1 L793.0,213.2 L809.0,213.3 L825.0,213.4 L841.0,213.5 L856.9,213.6 L872.9,213.7 L888.9,213.8 L904.8,213.9 L920.7,214.0 L936.6,214.1 L952.5,214.2 L968.3,214.2 L984.2,214.3 L1000.0,214.3 L1015.8,214.3 L1031.7,214.2 L1047.5,214.2 L1063.4,214.1 L1079.3,214.0 L1095.2,213.9 L1111.1,213.8 L1127.1,213.7 L1143.1,213.6 L1159.0,213.5 L1175.0,213.4 L1191.0,213.3 L1207.0,213.2 L1223.0,213.1 L1239.1,213.0 L1255.1,212.9 L1271.1,212.9 L1287.2,212.8 L1303.2,212.7 L1319.2,212.7 L1335.2,212.6 L1351.3,212.6 L1367.3,212.5 L1383.3,212.5 L1399.4,212.5 L1415.4,212.4 L1431.4,212.4 L1447.4,212.4 L1463.5,212.4 L1479.5,212.3 L1495.5,212.3 L1511.5,212.3 L1527.6,212.3 L1543.6,212.3 L1559.6,212.2 L1575.6,212.2 L1591.6,212.2 L1607.6,212.2 L1623.7,212.2 L1639.7,212.2 L1655.7,212.2 L1671.7,212.2 L1687.7,212.2 L1703.7,212.1 L1719.7,212.1"></path><path d="M-119.9,264.1 L-103.9,264.1 L-87.9,264.1 L-71.9,264.1 L-55.9,264.1 L-39.9,264.1 L-23.8,264.1 L-7.8,264.1 L8.2,264.1 L24.2,264.1 L40.2,264.1 L56.2,264.1 L72.2,264.1 L88.2,264.1 L104.2,264.1 L120.2,264.1 L136.2,264.1 L152.2,264.1 L168.2,264.1 L184.2,264.1 L200.2,264.1 L216.3,264.1 L232.3,264.1 L248.3,264.1 L264.3,264.1 L280.3,264.1 L296.3,264.1 L312.3,264.2 L328.3,264.2 L344.3,264.2 L360.4,264.2 L376.4,264.2 L392.4,264.2 L408.4,264.2 L424.4,264.2 L440.4,264.2 L456.5,264.3 L472.5,264.3 L488.5,264.3 L504.5,264.3 L520.6,264.3 L536.6,264.4 L552.6,264.4 L568.7,264.4 L584.7,264.4 L600.7,264.5 L616.8,264.5 L632.8,264.6 L648.9,264.6 L664.9,264.7 L681.0,264.7 L697.0,264.8 L713.1,264.9 L729.2,265.0 L745.2,265.1 L761.3,265.2 L777.3,265.3 L793.4,265.4 L809.5,265.6 L825.5,265.7 L841.5,265.9 L857.5,266.1 L873.5,266.3 L889.5,266.5 L905.4,266.8 L921.3,267.0 L937.1,267.2 L952.9,267.3 L968.6,267.5 L984.3,267.6 L1000.0,267.6 L1015.7,267.6 L1031.4,267.5 L1047.1,267.3 L1062.9,267.2 L1078.7,267.0 L1094.6,266.8 L1110.5,266.5 L1126.5,266.3 L1142.5,266.1 L1158.5,265.9 L1174.5,265.7 L1190.5,265.6 L1206.6,265.4 L1222.7,265.3 L1238.7,265.2 L1254.8,265.1 L1270.8,265.0 L1286.9,264.9 L1303.0,264.8 L1319.0,264.7 L1335.1,264.7 L1351.1,264.6 L1367.2,264.6 L1383.2,264.5 L1399.3,264.5 L1415.3,264.4 L1431.3,264.4 L1447.4,264.4 L1463.4,264.4 L1479.4,264.3 L1495.5,264.3 L1511.5,264.3 L1527.5,264.3 L1543.5,264.3 L1559.6,264.2 L1575.6,264.2 L1591.6,264.2 L1607.6,264.2 L1623.6,264.2 L1639.6,264.2 L1655.7,264.2 L1671.7,264.2 L1687.7,264.2 L1703.7,264.1 L1719.7,264.1"></path><path d="M-119.9,316.0 L-103.9,316.1 L-87.9,316.1 L-71.9,316.1 L-55.9,316.1 L-39.8,316.1 L-23.8,316.1 L-7.8,316.1 L8.2,316.1 L24.2,316.1 L40.2,316.1 L56.2,316.1 L72.2,316.1 L88.2,316.1 L104.2,316.1 L120.2,316.1 L136.2,316.1 L152.2,316.1 L168.2,316.1 L184.2,316.1 L200.3,316.1 L216.3,316.1 L232.3,316.1 L248.3,316.1 L264.3,316.1 L280.3,316.1 L296.3,316.1 L312.3,316.1 L328.3,316.1 L344.4,316.2 L360.4,316.2 L376.4,316.2 L392.4,316.2 L408.4,316.2 L424.5,316.2 L440.5,316.2 L456.5,316.2 L472.5,316.3 L488.6,316.3 L504.6,316.3 L520.6,316.3 L536.7,316.3 L552.7,316.4 L568.8,316.4 L584.8,316.4 L600.9,316.5 L616.9,316.5 L633.0,316.6 L649.1,316.6 L665.1,316.7 L681.2,316.7 L697.3,316.8 L713.4,316.9 L729.5,317.0 L745.6,317.1 L761.8,317.3 L777.9,317.4 L794.0,317.6 L810.2,317.9 L826.3,318.1 L842.5,318.4 L858.6,318.8 L874.7,319.2 L890.7,319.6 L906.7,320.1 L922.6,320.7 L938.3,321.2 L953.9,321.7 L969.4,322.0 L984.7,322.3 L1000.0,322.4 L1015.3,322.3 L1030.6,322.0 L1046.1,321.7 L1061.7,321.2 L1077.4,320.7 L1093.3,320.1 L1109.3,319.6 L1125.3,319.2 L1141.4,318.8 L1157.5,318.4 L1173.7,318.1 L1189.8,317.9 L1206.0,317.6 L1222.1,317.4 L1238.2,317.3 L1254.4,317.1 L1270.5,317.0 L1286.6,316.9 L1302.7,316.8 L1318.8,316.7 L1334.9,316.7 L1350.9,316.6 L1367.0,316.6 L1383.1,316.5 L1399.1,316.5 L1415.2,316.4 L1431.2,316.4 L1447.3,316.4 L1463.3,316.3 L1479.4,316.3 L1495.4,316.3 L1511.4,316.3 L1527.5,316.3 L1543.5,316.2 L1559.5,316.2 L1575.5,316.2 L1591.6,316.2 L1607.6,316.2 L1623.6,316.2 L1639.6,316.2 L1655.6,316.2 L1671.7,316.1 L1687.7,316.1 L1703.7,316.1 L1719.7,316.1"></path><path d="M-119.9,368.0 L-103.9,368.0 L-87.9,368.0 L-71.9,368.0 L-55.8,368.1 L-39.8,368.1 L-23.8,368.1 L-7.8,368.1 L8.2,368.1 L24.2,368.1 L40.2,368.1 L56.2,368.1 L72.2,368.1 L88.2,368.1 L104.2,368.1 L120.2,368.1 L136.2,368.1 L152.2,368.1 L168.2,368.1 L184.2,368.1 L200.3,368.1 L216.3,368.1 L232.3,368.1 L248.3,368.1 L264.3,368.1 L280.3,368.1 L296.3,368.1 L312.3,368.1 L328.4,368.1 L344.4,368.1 L360.4,368.2 L376.4,368.2 L392.4,368.2 L408.5,368.2 L424.5,368.2 L440.5,368.2 L456.5,368.2 L472.6,368.2 L488.6,368.3 L504.6,368.3 L520.7,368.3 L536.7,368.3 L552.8,368.3 L568.8,368.4 L584.9,368.4 L601.0,368.4 L617.0,368.5 L633.1,368.5 L649.2,368.6 L665.3,368.6 L681.4,368.7 L697.6,368.8 L713.7,368.9 L729.9,369.0 L746.1,369.1 L762.3,369.3 L778.5,369.5 L794.8,369.7 L811.2,370.0 L827.5,370.4 L844.0,370.9 L860.4,371.5 L876.9,372.2 L893.4,373.1 L909.9,374.3 L926.2,375.7 L942.2,377.3 L957.6,379.1 L972.4,380.8 L986.4,382.0 L1000.0,382.4 L1013.6,382.0 L1027.6,380.8 L1042.4,379.1 L1057.8,377.3 L1073.8,375.7 L1090.1,374.3 L1106.6,373.1 L1123.1,372.2 L1139.6,371.5 L1156.0,370.9 L1172.5,370.4 L1188.8,370.0 L1205.2,369.7 L1221.5,369.5 L1237.7,369.3 L1253.9,369.1 L1270.1,369.0 L1286.3,368.9 L1302.4,368.8 L1318.6,368.7 L1334.7,368.6 L1350.8,368.6 L1366.9,368.5 L1383.0,368.5 L1399.0,368.4 L1415.1,368.4 L1431.2,368.4 L1447.2,368.3 L1463.3,368.3 L1479.3,368.3 L1495.4,368.3 L1511.4,368.3 L1527.4,368.2 L1543.5,368.2 L1559.5,368.2 L1575.5,368.2 L1591.5,368.2 L1607.6,368.2 L1623.6,368.2 L1639.6,368.2 L1655.6,368.1 L1671.6,368.1 L1687.7,368.1 L1703.7,368.1 L1719.7,368.1"></path><path d="M-119.9,420.0 L-103.9,420.0 L-87.9,420.0 L-71.9,420.0 L-55.8,420.0 L-39.8,420.0 L-23.8,420.1 L-7.8,420.1 L8.2,420.1 L24.2,420.1 L40.2,420.1 L56.2,420.1 L72.2,420.1 L88.2,420.1 L104.2,420.1 L120.2,420.1 L136.2,420.1 L152.2,420.1 L168.2,420.1 L184.3,420.1 L200.3,420.1 L216.3,420.1 L232.3,420.1 L248.3,420.1 L264.3,420.1 L280.3,420.1 L296.3,420.1 L312.4,420.1 L328.4,420.1 L344.4,420.1 L360.4,420.1 L376.4,420.1 L392.5,420.2 L408.5,420.2 L424.5,420.2 L440.5,420.2 L456.6,420.2 L472.6,420.2 L488.6,420.2 L504.7,420.2 L520.7,420.3 L536.8,420.3 L552.8,420.3 L568.9,420.3 L585.0,420.3 L601.0,420.4 L617.1,420.4 L633.2,420.4 L649.3,420.5 L665.5,420.5 L681.6,420.6 L697.8,420.7 L714.0,420.8 L730.2,420.9 L746.4,421.0 L762.8,421.1 L779.1,421.3 L795.6,421.6 L812.2,421.9 L828.9,422.3 L845.7,422.8 L862.9,423.5 L880.3,424.5 L898.2,425.9 L916.7,428.1 L935.9,431.4 L952.2,433.6 L966.2,434.9 L979.1,436.5 L990.3,437.9 L1000.0,438.5 L1009.7,437.9 L1020.9,436.5 L1033.8,434.9 L1047.8,433.6 L1064.1,431.4 L1083.3,428.1 L1101.8,425.9 L1119.7,424.5 L1137.1,423.5 L1154.3,422.8 L1171.1,422.3 L1187.8,421.9 L1204.4,421.6 L1220.9,421.3 L1237.2,421.1 L1253.6,421.0 L1269.8,420.9 L1286.0,420.8 L1302.2,420.7 L1318.4,420.6 L1334.5,420.5 L1350.7,420.5 L1366.8,420.4 L1382.9,420.4 L1399.0,420.4 L1415.0,420.3 L1431.1,420.3 L1447.2,420.3 L1463.2,420.3 L1479.3,420.3 L1495.3,420.2 L1511.4,420.2 L1527.4,420.2 L1543.4,420.2 L1559.5,420.2 L1575.5,420.2 L1591.5,420.2 L1607.5,420.2 L1623.6,420.1 L1639.6,420.1 L1655.6,420.1 L1671.6,420.1 L1687.6,420.1 L1703.7,420.1 L1719.7,420.1"></path><path d="M-119.9,472.0 L-103.9,472.0 L-87.9,472.0 L-71.9,472.0 L-55.8,472.0 L-39.8,472.0 L-23.8,472.0 L-7.8,472.0 L8.2,472.0 L24.2,472.0 L40.2,472.1 L56.2,472.1 L72.2,472.1 L88.2,472.1 L104.2,472.1 L120.2,472.1 L136.2,472.1 L152.2,472.1 L168.2,472.1 L184.3,472.1 L200.3,472.1 L216.3,472.1 L232.3,472.1 L248.3,472.1 L264.3,472.1 L280.3,472.1 L296.3,472.1 L312.4,472.1 L328.4,472.1 L344.4,472.1 L360.4,472.1 L376.4,472.1 L392.5,472.1 L408.5,472.1 L424.5,472.1 L440.5,472.2 L456.6,472.2 L472.6,472.2 L488.6,472.2 L504.7,472.2 L520.7,472.2 L536.8,472.2 L552.8,472.2 L568.9,472.3 L585.0,472.3 L601.1,472.3 L617.2,472.3 L633.3,472.3 L649.4,472.4 L665.5,472.4 L681.7,472.5 L697.8,472.5 L714.0,472.6 L730.3,472.6 L746.6,472.7 L762.9,472.8 L779.4,472.9 L795.9,473.1 L812.6,473.3 L829.5,473.5 L846.6,473.8 L864.1,474.2 L882.3,474.8 L901.3,475.6 L922.1,476.8 L940.5,477.4 L956.5,477.3 L972.5,477.2 L988.5,476.9 L995.5,476.8 L1000.0,476.8 L1004.5,476.8 L1011.5,476.9 L1027.5,477.2 L1043.5,477.3 L1059.5,477.4 L1077.9,476.8 L1098.7,475.6 L1117.7,474.8 L1135.9,474.2 L1153.4,473.8 L1170.5,473.5 L1187.4,473.3 L1204.1,473.1 L1220.6,472.9 L1237.1,472.8 L1253.4,472.7 L1269.7,472.6 L1286.0,472.6 L1302.2,472.5 L1318.3,472.5 L1334.5,472.4 L1350.6,472.4 L1366.7,472.3 L1382.8,472.3 L1398.9,472.3 L1415.0,472.3 L1431.1,472.3 L1447.2,472.2 L1463.2,472.2 L1479.3,472.2 L1495.3,472.2 L1511.4,472.2 L1527.4,472.2 L1543.4,472.2 L1559.5,472.2 L1575.5,472.1 L1591.5,472.1 L1607.5,472.1 L1623.6,472.1 L1639.6,472.1 L1655.6,472.1 L1671.6,472.1 L1687.6,472.1 L1703.7,472.1 L1719.7,472.1"></path><path d="M-119.9,524.0 L-103.9,524.0 L-87.9,524.0 L-71.9,524.0 L-55.8,524.0 L-39.8,524.0 L-23.8,524.0 L-7.8,524.0 L8.2,524.0 L24.2,524.0 L40.2,524.0 L56.2,524.0 L72.2,524.0 L88.2,524.0 L104.2,524.1 L120.2,524.1 L136.2,524.1 L152.2,524.1 L168.2,524.1 L184.3,524.1 L200.3,524.1 L216.3,524.1 L232.3,524.1 L248.3,524.1 L264.3,524.1 L280.3,524.1 L296.3,524.1 L312.4,524.1 L328.4,524.1 L344.4,524.1 L360.4,524.1 L376.4,524.1 L392.5,524.1 L408.5,524.1 L424.5,524.1 L440.5,524.1 L456.6,524.1 L472.6,524.1 L488.6,524.1 L504.7,524.1 L520.7,524.2 L536.8,524.2 L552.8,524.2 L568.9,524.2 L585.0,524.2 L601.0,524.2 L617.1,524.2 L633.2,524.2 L649.3,524.2 L665.4,524.3 L681.6,524.3 L697.8,524.3 L713.9,524.3 L730.2,524.4 L746.4,524.4 L762.7,524.4 L779.1,524.4 L795.5,524.5 L812.1,524.5 L828.8,524.5 L845.6,524.5 L862.7,524.4 L880.0,524.3 L897.8,524.1 L916.0,523.7 L934.8,522.8 L951.7,521.5 L965.6,520.2 L978.5,518.8 L989.8,517.6 L1000.0,517.0 L1010.2,517.6 L1021.5,518.8 L1034.4,520.2 L1048.3,521.5 L1065.2,522.8 L1084.0,523.7 L1102.2,524.1 L1120.0,524.3 L1137.3,524.4 L1154.4,524.5 L1171.2,524.5 L1187.9,524.5 L1204.5,524.5 L1220.9,524.4 L1237.3,524.4 L1253.6,524.4 L1269.8,524.4 L1286.1,524.3 L1302.2,524.3 L1318.4,524.3 L1334.6,524.3 L1350.7,524.2 L1366.8,524.2 L1382.9,524.2 L1399.0,524.2 L1415.0,524.2 L1431.1,524.2 L1447.2,524.2 L1463.2,524.2 L1479.3,524.2 L1495.3,524.1 L1511.4,524.1 L1527.4,524.1 L1543.4,524.1 L1559.5,524.1 L1575.5,524.1 L1591.5,524.1 L1607.5,524.1 L1623.6,524.1 L1639.6,524.1 L1655.6,524.1 L1671.6,524.1 L1687.6,524.1 L1703.7,524.1 L1719.7,524.1"></path><path d="M-119.9,576.0 L-103.9,576.0 L-87.9,576.0 L-71.9,576.0 L-55.8,576.0 L-39.8,576.0 L-23.8,576.0 L-7.8,576.0 L8.2,576.0 L24.2,576.0 L40.2,576.0 L56.2,576.0 L72.2,576.0 L88.2,576.0 L104.2,576.0 L120.2,576.0 L136.2,576.0 L152.2,576.0 L168.2,576.0 L184.2,576.1 L200.3,576.1 L216.3,576.1 L232.3,576.1 L248.3,576.1 L264.3,576.1 L280.3,576.1 L296.3,576.1 L312.3,576.1 L328.4,576.1 L344.4,576.1 L360.4,576.1 L376.4,576.1 L392.4,576.1 L408.5,576.1 L424.5,576.1 L440.5,576.1 L456.5,576.1 L472.6,576.1 L488.6,576.1 L504.6,576.1 L520.7,576.1 L536.7,576.1 L552.8,576.1 L568.8,576.1 L584.9,576.1 L601.0,576.1 L617.0,576.1 L633.1,576.1 L649.2,576.1 L665.3,576.1 L681.4,576.1 L697.5,576.1 L713.7,576.1 L729.9,576.1 L746.0,576.1 L762.3,576.1 L778.5,576.0 L794.8,576.0 L811.1,575.9 L827.4,575.8 L843.8,575.7 L860.3,575.5 L876.7,575.3 L893.2,575.0 L909.5,574.5 L925.7,574.0 L941.7,573.3 L957.1,572.5 L971.9,571.7 L986.2,571.2 L1000.0,570.9 L1013.8,571.2 L1028.1,571.7 L1042.9,572.5 L1058.3,573.3 L1074.3,574.0 L1090.5,574.5 L1106.8,575.0 L1123.3,575.3 L1139.7,575.5 L1156.2,575.7 L1172.6,575.8 L1188.9,575.9 L1205.2,576.0 L1221.5,576.0 L1237.7,576.1 L1254.0,576.1 L1270.1,576.1 L1286.3,576.1 L1302.5,576.1 L1318.6,576.1 L1334.7,576.1 L1350.8,576.1 L1366.9,576.1 L1383.0,576.1 L1399.0,576.1 L1415.1,576.1 L1431.2,576.1 L1447.2,576.1 L1463.3,576.1 L1479.3,576.1 L1495.4,576.1 L1511.4,576.1 L1527.4,576.1 L1543.5,576.1 L1559.5,576.1 L1575.5,576.1 L1591.5,576.1 L1607.6,576.1 L1623.6,576.1 L1639.6,576.1 L1655.6,576.1 L1671.6,576.1 L1687.7,576.1 L1703.7,576.1 L1719.7,576.1"></path><path d="M-119.9,628.0 L-103.9,628.0 L-87.9,628.0 L-71.9,628.0 L-55.9,628.0 L-39.8,628.0 L-23.8,628.0 L-7.8,628.0 L8.2,628.0 L24.2,628.0 L40.2,628.0 L56.2,628.0 L72.2,628.0 L88.2,628.0 L104.2,628.0 L120.2,628.0 L136.2,628.0 L152.2,628.0 L168.2,628.0 L184.2,628.0 L200.3,628.0 L216.3,628.0 L232.3,628.0 L248.3,628.0 L264.3,628.0 L280.3,628.0 L296.3,628.0 L312.3,628.0 L328.3,628.0 L344.4,628.1 L360.4,628.1 L376.4,628.1 L392.4,628.1 L408.4,628.1 L424.5,628.1 L440.5,628.1 L456.5,628.1 L472.5,628.1 L488.6,628.1 L504.6,628.1 L520.6,628.1 L536.7,628.1 L552.7,628.1 L568.8,628.1 L584.8,628.1 L600.9,628.0 L616.9,628.0 L633.0,628.0 L649.0,628.0 L665.1,628.0 L681.2,628.0 L697.3,628.0 L713.4,628.0 L729.5,627.9 L745.6,627.9 L761.7,627.9 L777.8,627.8 L794.0,627.8 L810.1,627.7 L826.3,627.6 L842.4,627.5 L858.5,627.3 L874.6,627.2 L890.6,627.0 L906.6,626.8 L922.4,626.5 L938.2,626.3 L953.8,626.1 L969.3,625.9 L984.7,625.7 L1000.0,625.7 L1015.3,625.7 L1030.7,625.9 L1046.2,626.1 L1061.8,626.3 L1077.6,626.5 L1093.4,626.8 L1109.4,627.0 L1125.4,627.2 L1141.5,627.3 L1157.6,627.5 L1173.7,627.6 L1189.9,627.7 L1206.0,627.8 L1222.2,627.8 L1238.3,627.9 L1254.4,627.9 L1270.5,627.9 L1286.6,628.0 L1302.7,628.0 L1318.8,628.0 L1334.9,628.0 L1351.0,628.0 L1367.0,628.0 L1383.1,628.0 L1399.1,628.0 L1415.2,628.1 L1431.2,628.1 L1447.3,628.1 L1463.3,628.1 L1479.4,628.1 L1495.4,628.1 L1511.4,628.1 L1527.5,628.1 L1543.5,628.1 L1559.5,628.1 L1575.5,628.1 L1591.6,628.1 L1607.6,628.1 L1623.6,628.1 L1639.6,628.1 L1655.6,628.1 L1671.7,628.0 L1687.7,628.0 L1703.7,628.0 L1719.7,628.0"></path><path d="M-119.9,680.0 L-103.9,680.0 L-87.9,680.0 L-71.9,680.0 L-55.9,680.0 L-39.9,680.0 L-23.8,680.0 L-7.8,680.0 L8.2,680.0 L24.2,680.0 L40.2,680.0 L56.2,680.0 L72.2,680.0 L88.2,680.0 L104.2,680.0 L120.2,680.0 L136.2,680.0 L152.2,680.0 L168.2,680.0 L184.2,680.0 L200.2,680.0 L216.2,680.0 L232.3,680.0 L248.3,680.0 L264.3,680.0 L280.3,680.0 L296.3,680.0 L312.3,680.0 L328.3,680.0 L344.3,680.0 L360.4,680.0 L376.4,680.0 L392.4,680.0 L408.4,680.0 L424.4,680.0 L440.4,680.0 L456.5,680.0 L472.5,680.0 L488.5,680.0 L504.5,680.0 L520.6,680.0 L536.6,680.0 L552.6,680.0 L568.7,680.0 L584.7,680.0 L600.7,680.0 L616.8,680.0 L632.8,680.0 L648.9,680.0 L664.9,679.9 L681.0,679.9 L697.0,679.9 L713.1,679.9 L729.1,679.9 L745.2,679.8 L761.3,679.8 L777.3,679.7 L793.4,679.7 L809.4,679.6 L825.5,679.6 L841.5,679.5 L857.5,679.4 L873.5,679.3 L889.4,679.2 L905.3,679.1 L921.2,679.0 L937.0,678.9 L952.8,678.8 L968.6,678.8 L984.3,678.7 L1000.0,678.7 L1015.7,678.7 L1031.4,678.8 L1047.2,678.8 L1063.0,678.9 L1078.8,679.0 L1094.7,679.1 L1110.6,679.2 L1126.5,679.3 L1142.5,679.4 L1158.5,679.5 L1174.5,679.6 L1190.6,679.6 L1206.6,679.7 L1222.7,679.7 L1238.7,679.8 L1254.8,679.8 L1270.9,679.9 L1286.9,679.9 L1303.0,679.9 L1319.0,679.9 L1335.1,679.9 L1351.1,680.0 L1367.2,680.0 L1383.2,680.0 L1399.3,680.0 L1415.3,680.0 L1431.3,680.0 L1447.4,680.0 L1463.4,680.0 L1479.4,680.0 L1495.5,680.0 L1511.5,680.0 L1527.5,680.0 L1543.5,680.0 L1559.6,680.0 L1575.6,680.0 L1591.6,680.0 L1607.6,680.0 L1623.6,680.0 L1639.6,680.0 L1655.7,680.0 L1671.7,680.0 L1687.7,680.0 L1703.7,680.0 L1719.7,680.0"></path><path d="M-119.9,732.0 L-103.9,732.0 L-87.9,732.0 L-71.9,732.0 L-55.9,732.0 L-39.9,732.0 L-23.9,732.0 L-7.8,732.0 L8.2,732.0 L24.2,732.0 L40.2,732.0 L56.2,732.0 L72.2,732.0 L88.2,732.0 L104.2,732.0 L120.2,732.0 L136.2,732.0 L152.2,732.0 L168.2,732.0 L184.2,732.0 L200.2,732.0 L216.2,732.0 L232.2,732.0 L248.3,732.0 L264.3,732.0 L280.3,732.0 L296.3,732.0 L312.3,732.0 L328.3,732.0 L344.3,732.0 L360.3,732.0 L376.3,732.0 L392.4,732.0 L408.4,732.0 L424.4,732.0 L440.4,732.0 L456.4,732.0 L472.4,732.0 L488.5,732.0 L504.5,732.0 L520.5,732.0 L536.5,732.0 L552.5,732.0 L568.6,732.0 L584.6,732.0 L600.6,732.0 L616.6,731.9 L632.7,731.9 L648.7,731.9 L664.7,731.9 L680.8,731.9 L696.8,731.9 L712.8,731.8 L728.9,731.8 L744.9,731.8 L760.9,731.8 L776.9,731.7 L792.9,731.7 L809.0,731.6 L824.9,731.6 L840.9,731.6 L856.9,731.5 L872.9,731.4 L888.8,731.4 L904.7,731.3 L920.7,731.3 L936.6,731.2 L952.4,731.2 L968.3,731.2 L984.1,731.2 L1000.0,731.2 L1015.9,731.2 L1031.7,731.2 L1047.6,731.2 L1063.4,731.2 L1079.3,731.3 L1095.3,731.3 L1111.2,731.4 L1127.1,731.4 L1143.1,731.5 L1159.1,731.6 L1175.1,731.6 L1191.0,731.6 L1207.1,731.7 L1223.1,731.7 L1239.1,731.8 L1255.1,731.8 L1271.1,731.8 L1287.2,731.8 L1303.2,731.9 L1319.2,731.9 L1335.3,731.9 L1351.3,731.9 L1367.3,731.9 L1383.4,731.9 L1399.4,732.0 L1415.4,732.0 L1431.4,732.0 L1447.5,732.0 L1463.5,732.0 L1479.5,732.0 L1495.5,732.0 L1511.5,732.0 L1527.6,732.0 L1543.6,732.0 L1559.6,732.0 L1575.6,732.0 L1591.6,732.0 L1607.6,732.0 L1623.7,732.0 L1639.7,732.0 L1655.7,732.0 L1671.7,732.0 L1687.7,732.0 L1703.7,732.0 L1719.7,732.0"></path><path d="M-119.9,784.0 L-103.9,784.0 L-87.9,784.0 L-71.9,784.0 L-55.9,784.0 L-39.9,784.0 L-23.9,784.0 L-7.9,784.0 L8.1,784.0 L24.2,784.0 L40.2,784.0 L56.2,784.0 L72.2,784.0 L88.2,784.0 L104.2,784.0 L120.2,784.0 L136.2,784.0 L152.2,784.0 L168.2,784.0 L184.2,784.0 L200.2,784.0 L216.2,784.0 L232.2,784.0 L248.2,784.0 L264.2,784.0 L280.3,784.0 L296.3,784.0 L312.3,784.0 L328.3,784.0 L344.3,784.0 L360.3,784.0 L376.3,784.0 L392.3,784.0 L408.3,784.0 L424.3,784.0 L440.4,784.0 L456.4,784.0 L472.4,784.0 L488.4,784.0 L504.4,784.0 L520.4,784.0 L536.4,784.0 L552.5,784.0 L568.5,783.9 L584.5,783.9 L600.5,783.9 L616.5,783.9 L632.6,783.9 L648.6,783.9 L664.6,783.9 L680.6,783.9 L696.6,783.9 L712.6,783.8 L728.6,783.8 L744.7,783.8 L760.7,783.8 L776.7,783.7 L792.7,783.7 L808.7,783.7 L824.6,783.7 L840.6,783.6 L856.6,783.6 L872.6,783.6 L888.5,783.5 L904.5,783.5 L920.4,783.5 L936.3,783.5 L952.3,783.4 L968.2,783.4 L984.1,783.4 L1000.0,783.4 L1015.9,783.4 L1031.8,783.4 L1047.7,783.4 L1063.7,783.5 L1079.6,783.5 L1095.5,783.5 L1111.5,783.5 L1127.4,783.6 L1143.4,783.6 L1159.4,783.6 L1175.4,783.7 L1191.3,783.7 L1207.3,783.7 L1223.3,783.7 L1239.3,783.8 L1255.3,783.8 L1271.4,783.8 L1287.4,783.8 L1303.4,783.9 L1319.4,783.9 L1335.4,783.9 L1351.4,783.9 L1367.4,783.9 L1383.5,783.9 L1399.5,783.9 L1415.5,783.9 L1431.5,783.9 L1447.5,784.0 L1463.6,784.0 L1479.6,784.0 L1495.6,784.0 L1511.6,784.0 L1527.6,784.0 L1543.6,784.0 L1559.6,784.0 L1575.7,784.0 L1591.7,784.0 L1607.7,784.0 L1623.7,784.0 L1639.7,784.0 L1655.7,784.0 L1671.7,784.0 L1687.7,784.0 L1703.7,784.0 L1719.7,784.0"></path><path d="M-119.9,836.0 L-103.9,836.0 L-87.9,836.0 L-71.9,836.0 L-55.9,836.0 L-39.9,836.0 L-23.9,836.0 L-7.9,836.0 L8.1,836.0 L24.1,836.0 L40.2,836.0 L56.2,836.0 L72.2,836.0 L88.2,836.0 L104.2,836.0 L120.2,836.0 L136.2,836.0 L152.2,836.0 L168.2,836.0 L184.2,836.0 L200.2,836.0 L216.2,836.0 L232.2,836.0 L248.2,836.0 L264.2,836.0 L280.2,836.0 L296.2,836.0 L312.2,836.0 L328.3,836.0 L344.3,836.0 L360.3,836.0 L376.3,836.0 L392.3,836.0 L408.3,836.0 L424.3,836.0 L440.3,836.0 L456.3,836.0 L472.3,836.0 L488.3,836.0 L504.4,836.0 L520.4,836.0 L536.4,835.9 L552.4,835.9 L568.4,835.9 L584.4,835.9 L600.4,835.9 L616.4,835.9 L632.4,835.9 L648.5,835.9 L664.5,835.9 L680.5,835.9 L696.5,835.9 L712.5,835.8 L728.5,835.8 L744.5,835.8 L760.5,835.8 L776.5,835.8 L792.5,835.8 L808.5,835.7 L824.4,835.7 L840.4,835.7 L856.4,835.7 L872.4,835.7 L888.3,835.6 L904.3,835.6 L920.3,835.6 L936.2,835.6 L952.2,835.6 L968.1,835.6 L984.1,835.6 L1000.0,835.6 L1015.9,835.6 L1031.9,835.6 L1047.8,835.6 L1063.8,835.6 L1079.7,835.6 L1095.7,835.6 L1111.7,835.6 L1127.6,835.7 L1143.6,835.7 L1159.6,835.7 L1175.6,835.7 L1191.5,835.7 L1207.5,835.8 L1223.5,835.8 L1239.5,835.8 L1255.5,835.8 L1271.5,835.8 L1287.5,835.8 L1303.5,835.9 L1319.5,835.9 L1335.5,835.9 L1351.5,835.9 L1367.6,835.9 L1383.6,835.9 L1399.6,835.9 L1415.6,835.9 L1431.6,835.9 L1447.6,835.9 L1463.6,835.9 L1479.6,836.0 L1495.6,836.0 L1511.7,836.0 L1527.7,836.0 L1543.7,836.0 L1559.7,836.0 L1575.7,836.0 L1591.7,836.0 L1607.7,836.0 L1623.7,836.0 L1639.7,836.0 L1655.7,836.0 L1671.7,836.0 L1687.8,836.0 L1703.8,836.0 L1719.8,836.0"></path><path d="M-119.9,888.0 L-103.9,888.0 L-87.9,888.0 L-71.9,888.0 L-55.9,888.0 L-39.9,888.0 L-23.9,888.0 L-7.9,888.0 L8.1,888.0 L24.1,888.0 L40.1,888.0 L56.1,888.0 L72.1,888.0 L88.2,888.0 L104.2,888.0 L120.2,888.0 L136.2,888.0 L152.2,888.0 L168.2,888.0 L184.2,888.0 L200.2,888.0 L216.2,888.0 L232.2,888.0 L248.2,888.0 L264.2,888.0 L280.2,888.0 L296.2,888.0 L312.2,888.0 L328.2,888.0 L344.2,888.0 L360.2,888.0 L376.3,888.0 L392.3,888.0 L408.3,888.0 L424.3,888.0 L440.3,888.0 L456.3,888.0 L472.3,888.0 L488.3,888.0 L504.3,888.0 L520.3,887.9 L536.3,887.9 L552.3,887.9 L568.3,887.9 L584.3,887.9 L600.4,887.9 L616.4,887.9 L632.4,887.9 L648.4,887.9 L664.4,887.9 L680.4,887.9 L696.4,887.9 L712.4,887.8 L728.4,887.8 L744.4,887.8 L760.4,887.8 L776.4,887.8 L792.3,887.8 L808.3,887.8 L824.3,887.8 L840.3,887.7 L856.3,887.7 L872.3,887.7 L888.2,887.7 L904.2,887.7 L920.2,887.7 L936.1,887.7 L952.1,887.7 L968.1,887.7 L984.0,887.7 L1000.0,887.7 L1016.0,887.7 L1031.9,887.7 L1047.9,887.7 L1063.9,887.7 L1079.8,887.7 L1095.8,887.7 L1111.8,887.7 L1127.7,887.7 L1143.7,887.7 L1159.7,887.7 L1175.7,887.8 L1191.7,887.8 L1207.7,887.8 L1223.6,887.8 L1239.6,887.8 L1255.6,887.8 L1271.6,887.8 L1287.6,887.8 L1303.6,887.9 L1319.6,887.9 L1335.6,887.9 L1351.6,887.9 L1367.6,887.9 L1383.6,887.9 L1399.6,887.9 L1415.7,887.9 L1431.7,887.9 L1447.7,887.9 L1463.7,887.9 L1479.7,887.9 L1495.7,888.0 L1511.7,888.0 L1527.7,888.0 L1543.7,888.0 L1559.7,888.0 L1575.7,888.0 L1591.7,888.0 L1607.7,888.0 L1623.7,888.0 L1639.8,888.0 L1655.8,888.0 L1671.8,888.0 L1687.8,888.0 L1703.8,888.0 L1719.8,888.0"></path><path d="M-119.9,940.0 L-103.9,940.0 L-87.9,940.0 L-71.9,940.0 L-55.9,940.0 L-39.9,940.0 L-23.9,940.0 L-7.9,940.0 L8.1,940.0 L24.1,940.0 L40.1,940.0 L56.1,940.0 L72.1,940.0 L88.1,940.0 L104.1,940.0 L120.2,940.0 L136.2,940.0 L152.2,940.0 L168.2,940.0 L184.2,940.0 L200.2,940.0 L216.2,940.0 L232.2,940.0 L248.2,940.0 L264.2,940.0 L280.2,940.0 L296.2,940.0 L312.2,940.0 L328.2,940.0 L344.2,940.0 L360.2,940.0 L376.2,940.0 L392.2,940.0 L408.2,940.0 L424.2,940.0 L440.2,940.0 L456.2,940.0 L472.3,940.0 L488.3,940.0 L504.3,939.9 L520.3,939.9 L536.3,939.9 L552.3,939.9 L568.3,939.9 L584.3,939.9 L600.3,939.9 L616.3,939.9 L632.3,939.9 L648.3,939.9 L664.3,939.9 L680.3,939.9 L696.3,939.9 L712.3,939.9 L728.3,939.9 L744.3,939.8 L760.3,939.8 L776.3,939.8 L792.3,939.8 L808.2,939.8 L824.2,939.8 L840.2,939.8 L856.2,939.8 L872.2,939.8 L888.2,939.8 L904.1,939.8 L920.1,939.8 L936.1,939.7 L952.1,939.7 L968.1,939.7 L984.0,939.7 L1000.0,939.7 L1016.0,939.7 L1031.9,939.7 L1047.9,939.7 L1063.9,939.7 L1079.9,939.8 L1095.9,939.8 L1111.8,939.8 L1127.8,939.8 L1143.8,939.8 L1159.8,939.8 L1175.8,939.8 L1191.8,939.8 L1207.7,939.8 L1223.7,939.8 L1239.7,939.8 L1255.7,939.8 L1271.7,939.9 L1287.7,939.9 L1303.7,939.9 L1319.7,939.9 L1335.7,939.9 L1351.7,939.9 L1367.7,939.9 L1383.7,939.9 L1399.7,939.9 L1415.7,939.9 L1431.7,939.9 L1447.7,939.9 L1463.7,939.9 L1479.7,939.9 L1495.7,939.9 L1511.7,940.0 L1527.7,940.0 L1543.8,940.0 L1559.8,940.0 L1575.8,940.0 L1591.8,940.0 L1607.8,940.0 L1623.8,940.0 L1639.8,940.0 L1655.8,940.0 L1671.8,940.0 L1687.8,940.0 L1703.8,940.0 L1719.8,940.0"></path><path d="M-119.9,992.0 L-103.9,992.0 L-87.9,992.0 L-71.9,992.0 L-55.9,992.0 L-39.9,992.0 L-23.9,992.0 L-7.9,992.0 L8.1,992.0 L24.1,992.0 L40.1,992.0 L56.1,992.0 L72.1,992.0 L88.1,992.0 L104.1,992.0 L120.1,992.0 L136.1,992.0 L152.1,992.0 L168.1,992.0 L184.2,992.0 L200.2,992.0 L216.2,992.0 L232.2,992.0 L248.2,992.0 L264.2,992.0 L280.2,992.0 L296.2,992.0 L312.2,992.0 L328.2,992.0 L344.2,992.0 L360.2,992.0 L376.2,992.0 L392.2,992.0 L408.2,992.0 L424.2,992.0 L440.2,992.0 L456.2,992.0 L472.2,992.0 L488.2,991.9 L504.2,991.9 L520.2,991.9 L536.2,991.9 L552.2,991.9 L568.2,991.9 L584.2,991.9 L600.2,991.9 L616.2,991.9 L632.2,991.9 L648.2,991.9 L664.2,991.9 L680.2,991.9 L696.2,991.9 L712.2,991.9 L728.2,991.9 L744.2,991.9 L760.2,991.9 L776.2,991.8 L792.2,991.8 L808.2,991.8 L824.2,991.8 L840.2,991.8 L856.2,991.8 L872.1,991.8 L888.1,991.8 L904.1,991.8 L920.1,991.8 L936.1,991.8 L952.1,991.8 L968.0,991.8 L984.0,991.8 L1000.0,991.8 L1016.0,991.8 L1032.0,991.8 L1047.9,991.8 L1063.9,991.8 L1079.9,991.8 L1095.9,991.8 L1111.9,991.8 L1127.9,991.8 L1143.8,991.8 L1159.8,991.8 L1175.8,991.8 L1191.8,991.8 L1207.8,991.8 L1223.8,991.8 L1239.8,991.9 L1255.8,991.9 L1271.8,991.9 L1287.8,991.9 L1303.8,991.9 L1319.8,991.9 L1335.8,991.9 L1351.8,991.9 L1367.8,991.9 L1383.8,991.9 L1399.8,991.9 L1415.8,991.9 L1431.8,991.9 L1447.8,991.9 L1463.8,991.9 L1479.8,991.9 L1495.8,991.9 L1511.8,991.9 L1527.8,992.0 L1543.8,992.0 L1559.8,992.0 L1575.8,992.0 L1591.8,992.0 L1607.8,992.0 L1623.8,992.0 L1639.8,992.0 L1655.8,992.0 L1671.8,992.0 L1687.8,992.0 L1703.8,992.0 L1719.8,992.0"></path><path d="M-119.9,-99.9 L-119.9,-83.9 L-119.9,-67.9 L-119.9,-51.9 L-119.9,-35.9 L-119.9,-19.9 L-119.9,-3.9 L-119.9,12.1 L-119.9,28.1 L-119.9,44.1 L-119.9,60.1 L-119.9,76.1 L-119.9,92.1 L-119.9,108.1 L-119.9,124.1 L-119.9,140.1 L-119.9,156.1 L-119.9,172.1 L-119.9,188.1 L-119.9,204.1 L-119.9,220.1 L-119.9,236.1 L-119.9,252.1 L-119.9,268.1 L-119.9,284.1 L-119.9,300.0 L-119.9,316.0 L-119.9,332.0 L-119.9,348.0 L-119.9,364.0 L-119.9,380.0 L-119.9,396.0 L-119.9,412.0 L-119.9,428.0 L-119.9,444.0 L-119.9,460.0 L-119.9,476.0 L-119.9,492.0 L-119.9,508.0 L-119.9,524.0 L-119.9,540.0 L-119.9,556.0 L-119.9,572.0 L-119.9,588.0 L-119.9,604.0 L-119.9,620.0 L-119.9,636.0 L-119.9,652.0 L-119.9,668.0 L-119.9,684.0 L-119.9,700.0 L-119.9,716.0 L-119.9,732.0 L-119.9,748.0 L-119.9,764.0 L-119.9,780.0 L-119.9,796.0 L-119.9,812.0 L-119.9,828.0 L-119.9,844.0 L-119.9,860.0 L-119.9,876.0 L-119.9,892.0 L-119.9,908.0 L-119.9,924.0 L-119.9,940.0 L-119.9,956.0 L-119.9,972.0 L-119.9,988.0"></path><path d="M-67.9,-99.9 L-67.9,-83.9 L-67.9,-67.9 L-67.9,-51.9 L-67.9,-35.9 L-67.9,-19.9 L-67.9,-3.9 L-67.9,12.1 L-67.9,28.1 L-67.9,44.1 L-67.9,60.1 L-67.9,76.1 L-67.9,92.1 L-67.9,108.1 L-67.9,124.1 L-67.9,140.1 L-67.9,156.1 L-67.9,172.1 L-67.9,188.1 L-67.9,204.1 L-67.9,220.1 L-67.9,236.1 L-67.9,252.1 L-67.9,268.1 L-67.9,284.1 L-67.9,300.1 L-67.9,316.1 L-67.9,332.1 L-67.9,348.1 L-67.9,364.1 L-67.9,380.0 L-67.9,396.0 L-67.9,412.0 L-67.9,428.0 L-67.9,444.0 L-67.9,460.0 L-67.9,476.0 L-67.9,492.0 L-67.9,508.0 L-67.9,524.0 L-67.9,540.0 L-67.9,556.0 L-67.9,572.0 L-67.9,588.0 L-67.9,604.0 L-67.9,620.0 L-67.9,636.0 L-67.9,652.0 L-67.9,668.0 L-67.9,684.0 L-67.9,700.0 L-67.9,716.0 L-67.9,732.0 L-67.9,748.0 L-67.9,764.0 L-67.9,780.0 L-67.9,796.0 L-67.9,812.0 L-67.9,828.0 L-67.9,844.0 L-67.9,860.0 L-67.9,876.0 L-67.9,892.0 L-67.9,908.0 L-67.9,924.0 L-67.9,940.0 L-67.9,956.0 L-67.9,972.0 L-67.9,988.0"></path><path d="M-15.9,-99.9 L-15.9,-83.9 L-15.9,-67.9 L-15.9,-51.9 L-15.9,-35.9 L-15.9,-19.9 L-15.9,-3.9 L-15.9,12.1 L-15.9,28.1 L-15.9,44.1 L-15.9,60.1 L-15.9,76.1 L-15.9,92.1 L-15.9,108.1 L-15.9,124.1 L-15.9,140.1 L-15.9,156.1 L-15.9,172.1 L-15.9,188.1 L-15.9,204.1 L-15.8,220.1 L-15.8,236.1 L-15.8,252.1 L-15.8,268.1 L-15.8,284.1 L-15.8,300.1 L-15.8,316.1 L-15.8,332.1 L-15.8,348.1 L-15.8,364.1 L-15.8,380.1 L-15.8,396.1 L-15.8,412.1 L-15.8,428.1 L-15.8,444.0 L-15.8,460.0 L-15.8,476.0 L-15.8,492.0 L-15.8,508.0 L-15.8,524.0 L-15.8,540.0 L-15.8,556.0 L-15.8,572.0 L-15.8,588.0 L-15.8,604.0 L-15.8,620.0 L-15.8,636.0 L-15.8,652.0 L-15.8,668.0 L-15.8,684.0 L-15.8,700.0 L-15.8,716.0 L-15.9,732.0 L-15.9,748.0 L-15.9,764.0 L-15.9,780.0 L-15.9,796.0 L-15.9,812.0 L-15.9,828.0 L-15.9,844.0 L-15.9,860.0 L-15.9,876.0 L-15.9,892.0 L-15.9,908.0 L-15.9,924.0 L-15.9,940.0 L-15.9,956.0 L-15.9,972.0 L-15.9,988.0"></path><path d="M36.1,-99.9 L36.1,-83.9 L36.1,-67.9 L36.1,-51.9 L36.1,-35.9 L36.1,-19.9 L36.1,-3.9 L36.1,12.1 L36.1,28.1 L36.1,44.1 L36.1,60.1 L36.1,76.1 L36.1,92.1 L36.2,108.1 L36.2,124.1 L36.2,140.1 L36.2,156.1 L36.2,172.1 L36.2,188.1 L36.2,204.1 L36.2,220.1 L36.2,236.1 L36.2,252.1 L36.2,268.1 L36.2,284.1 L36.2,300.1 L36.2,316.1 L36.2,332.1 L36.2,348.1 L36.2,364.1 L36.2,380.1 L36.2,396.1 L36.2,412.1 L36.2,428.1 L36.2,444.1 L36.2,460.1 L36.2,476.1 L36.2,492.0 L36.2,508.0 L36.2,524.0 L36.2,540.0 L36.2,556.0 L36.2,572.0 L36.2,588.0 L36.2,604.0 L36.2,620.0 L36.2,636.0 L36.2,652.0 L36.2,668.0 L36.2,684.0 L36.2,700.0 L36.2,716.0 L36.2,732.0 L36.2,748.0 L36.2,764.0 L36.2,780.0 L36.2,796.0 L36.2,812.0 L36.2,828.0 L36.1,844.0 L36.1,860.0 L36.1,876.0 L36.1,892.0 L36.1,908.0 L36.1,924.0 L36.1,940.0 L36.1,956.0 L36.1,972.0 L36.1,988.0"></path><path d="M88.1,-99.9 L88.1,-83.9 L88.1,-67.9 L88.1,-51.9 L88.1,-35.9 L88.1,-19.9 L88.1,-3.9 L88.1,12.1 L88.1,28.1 L88.2,44.1 L88.2,60.1 L88.2,76.1 L88.2,92.1 L88.2,108.1 L88.2,124.1 L88.2,140.1 L88.2,156.1 L88.2,172.1 L88.2,188.1 L88.2,204.1 L88.2,220.1 L88.2,236.1 L88.2,252.1 L88.2,268.1 L88.2,284.1 L88.2,300.1 L88.2,316.1 L88.2,332.1 L88.2,348.1 L88.2,364.1 L88.2,380.1 L88.2,396.1 L88.2,412.1 L88.2,428.1 L88.2,444.1 L88.2,460.1 L88.2,476.1 L88.2,492.1 L88.2,508.1 L88.2,524.0 L88.2,540.0 L88.2,556.0 L88.2,572.0 L88.2,588.0 L88.2,604.0 L88.2,620.0 L88.2,636.0 L88.2,652.0 L88.2,668.0 L88.2,684.0 L88.2,700.0 L88.2,716.0 L88.2,732.0 L88.2,748.0 L88.2,764.0 L88.2,780.0 L88.2,796.0 L88.2,812.0 L88.2,828.0 L88.2,844.0 L88.2,860.0 L88.2,876.0 L88.2,892.0 L88.1,908.0 L88.1,924.0 L88.1,940.0 L88.1,956.0 L88.1,972.0 L88.1,988.0"></path><path d="M140.1,-99.9 L140.1,-83.9 L140.1,-67.9 L140.1,-51.9 L140.1,-35.9 L140.2,-19.9 L140.2,-3.9 L140.2,12.1 L140.2,28.1 L140.2,44.1 L140.2,60.1 L140.2,76.1 L140.2,92.1 L140.2,108.1 L140.2,124.1 L140.2,140.1 L140.2,156.1 L140.2,172.1 L140.2,188.1 L140.2,204.1 L140.2,220.1 L140.2,236.1 L140.2,252.1 L140.2,268.1 L140.2,284.1 L140.2,300.1 L140.2,316.1 L140.2,332.1 L140.2,348.1 L140.2,364.1 L140.2,380.1 L140.2,396.1 L140.2,412.1 L140.2,428.1 L140.2,444.1 L140.2,460.1 L140.2,476.1 L140.2,492.1 L140.2,508.1 L140.2,524.1 L140.2,540.1 L140.2,556.0 L140.2,572.0 L140.2,588.0 L140.2,604.0 L140.2,620.0 L140.2,636.0 L140.2,652.0 L140.2,668.0 L140.2,684.0 L140.2,700.0 L140.2,716.0 L140.2,732.0 L140.2,748.0 L140.2,764.0 L140.2,780.0 L140.2,796.0 L140.2,812.0 L140.2,828.0 L140.2,844.0 L140.2,860.0 L140.2,876.0 L140.2,892.0 L140.2,908.0 L140.2,924.0 L140.2,940.0 L140.2,956.0 L140.1,972.0 L140.1,988.0"></path><path d="M192.1,-99.9 L192.1,-83.9 L192.2,-67.9 L192.2,-51.9 L192.2,-35.9 L192.2,-19.9 L192.2,-3.9 L192.2,12.1 L192.2,28.1 L192.2,44.1 L192.2,60.1 L192.2,76.1 L192.2,92.1 L192.2,108.1 L192.2,124.1 L192.2,140.1 L192.2,156.1 L192.2,172.1 L192.2,188.1 L192.2,204.1 L192.2,220.1 L192.2,236.1 L192.2,252.1 L192.2,268.1 L192.2,284.1 L192.2,300.1 L192.2,316.1 L192.2,332.1 L192.3,348.1 L192.3,364.1 L192.3,380.1 L192.3,396.1 L192.3,412.1 L192.3,428.1 L192.3,444.1 L192.3,460.1 L192.3,476.1 L192.3,492.1 L192.3,508.1 L192.3,524.1 L192.3,540.1 L192.3,556.1 L192.3,572.1 L192.3,588.0 L192.2,604.0 L192.2,620.0 L192.2,636.0 L192.2,652.0 L192.2,668.0 L192.2,684.0 L192.2,700.0 L192.2,716.0 L192.2,732.0 L192.2,748.0 L192.2,764.0 L192.2,780.0 L192.2,796.0 L192.2,812.0 L192.2,828.0 L192.2,844.0 L192.2,860.0 L192.2,876.0 L192.2,892.0 L192.2,908.0 L192.2,924.0 L192.2,940.0 L192.2,956.0 L192.2,972.0 L192.2,988.0"></path><path d="M244.2,-99.9 L244.2,-83.9 L244.2,-67.9 L244.2,-51.9 L244.2,-35.9 L244.2,-19.9 L244.2,-3.9 L244.2,12.1 L244.2,28.1 L244.2,44.1 L244.2,60.1 L244.2,76.1 L244.2,92.1 L244.2,108.1 L244.2,124.1 L244.2,140.1 L244.2,156.1 L244.2,172.1 L244.2,188.1 L244.2,204.1 L244.3,220.1 L244.3,236.1 L244.3,252.1 L244.3,268.1 L244.3,284.1 L244.3,300.1 L244.3,316.1 L244.3,332.1 L244.3,348.1 L244.3,364.1 L244.3,380.1 L244.3,396.1 L244.3,412.1 L244.3,428.1 L244.3,444.1 L244.3,460.1 L244.3,476.1 L244.3,492.1 L244.3,508.1 L244.3,524.1 L244.3,540.1 L244.3,556.1 L244.3,572.1 L244.3,588.1 L244.3,604.0 L244.3,620.0 L244.3,636.0 L244.3,652.0 L244.3,668.0 L244.3,684.0 L244.3,700.0 L244.3,716.0 L244.3,732.0 L244.2,748.0 L244.2,764.0 L244.2,780.0 L244.2,796.0 L244.2,812.0 L244.2,828.0 L244.2,844.0 L244.2,860.0 L244.2,876.0 L244.2,892.0 L244.2,908.0 L244.2,924.0 L244.2,940.0 L244.2,956.0 L244.2,972.0 L244.2,988.0"></path><path d="M296.2,-99.9 L296.2,-83.9 L296.2,-67.9 L296.2,-51.9 L296.2,-35.9 L296.2,-19.9 L296.2,-3.9 L296.2,12.1 L296.2,28.1 L296.2,44.2 L296.2,60.2 L296.2,76.2 L296.2,92.2 L296.2,108.2 L296.2,124.2 L296.3,140.2 L296.3,156.2 L296.3,172.2 L296.3,188.2 L296.3,204.1 L296.3,220.1 L296.3,236.1 L296.3,252.1 L296.3,268.1 L296.3,284.1 L296.3,300.1 L296.3,316.1 L296.3,332.1 L296.3,348.1 L296.3,364.1 L296.3,380.1 L296.3,396.1 L296.3,412.1 L296.3,428.1 L296.3,444.1 L296.3,460.1 L296.3,476.1 L296.3,492.1 L296.3,508.1 L296.3,524.1 L296.3,540.1 L296.3,556.1 L296.3,572.1 L296.3,588.1 L296.3,604.1 L296.3,620.0 L296.3,636.0 L296.3,652.0 L296.3,668.0 L296.3,684.0 L296.3,700.0 L296.3,716.0 L296.3,732.0 L296.3,748.0 L296.3,764.0 L296.3,780.0 L296.3,796.0 L296.2,812.0 L296.2,828.0 L296.2,844.0 L296.2,860.0 L296.2,876.0 L296.2,892.0 L296.2,908.0 L296.2,924.0 L296.2,940.0 L296.2,956.0 L296.2,972.0 L296.2,988.0"></path><path d="M348.2,-99.8 L348.2,-83.8 L348.2,-67.8 L348.2,-51.8 L348.2,-35.8 L348.2,-19.8 L348.2,-3.8 L348.2,12.2 L348.2,28.2 L348.2,44.2 L348.2,60.2 L348.3,76.2 L348.3,92.2 L348.3,108.2 L348.3,124.2 L348.3,140.2 L348.3,156.2 L348.3,172.2 L348.3,188.2 L348.3,204.2 L348.3,220.2 L348.3,236.2 L348.3,252.2 L348.3,268.2 L348.4,284.2 L348.4,300.2 L348.4,316.2 L348.4,332.2 L348.4,348.2 L348.4,364.1 L348.4,380.1 L348.4,396.1 L348.4,412.1 L348.4,428.1 L348.4,444.1 L348.4,460.1 L348.4,476.1 L348.4,492.1 L348.4,508.1 L348.4,524.1 L348.4,540.1 L348.4,556.1 L348.4,572.1 L348.4,588.1 L348.4,604.1 L348.4,620.1 L348.4,636.0 L348.4,652.0 L348.4,668.0 L348.3,684.0 L348.3,700.0 L348.3,716.0 L348.3,732.0 L348.3,748.0 L348.3,764.0 L348.3,780.0 L348.3,796.0 L348.3,812.0 L348.3,828.0 L348.3,844.0 L348.3,860.0 L348.2,876.0 L348.2,892.0 L348.2,908.0 L348.2,924.0 L348.2,940.0 L348.2,956.0 L348.2,972.0 L348.2,988.0"></path><path d="M400.2,-99.8 L400.2,-83.8 L400.2,-67.8 L400.2,-51.8 L400.2,-35.8 L400.2,-19.8 L400.2,-3.8 L400.2,12.2 L400.2,28.2 L400.3,44.2 L400.3,60.2 L400.3,76.2 L400.3,92.2 L400.3,108.2 L400.3,124.2 L400.3,140.2 L400.3,156.2 L400.3,172.2 L400.3,188.2 L400.4,204.2 L400.4,220.2 L400.4,236.2 L400.4,252.2 L400.4,268.2 L400.4,284.2 L400.4,300.2 L400.4,316.2 L400.4,332.2 L400.4,348.2 L400.5,364.2 L400.5,380.2 L400.5,396.2 L400.5,412.2 L400.5,428.2 L400.5,444.1 L400.5,460.1 L400.5,476.1 L400.5,492.1 L400.5,508.1 L400.5,524.1 L400.5,540.1 L400.5,556.1 L400.5,572.1 L400.4,588.1 L400.4,604.1 L400.4,620.1 L400.4,636.1 L400.4,652.0 L400.4,668.0 L400.4,684.0 L400.4,700.0 L400.4,716.0 L400.4,732.0 L400.4,748.0 L400.3,764.0 L400.3,780.0 L400.3,796.0 L400.3,812.0 L400.3,828.0 L400.3,844.0 L400.3,860.0 L400.3,876.0 L400.3,892.0 L400.2,908.0 L400.2,924.0 L400.2,940.0 L400.2,956.0 L400.2,972.0 L400.2,988.0"></path><path d="M452.2,-99.8 L452.2,-83.8 L452.2,-67.8 L452.2,-51.8 L452.2,-35.8 L452.2,-19.8 L452.2,-3.8 L452.3,12.2 L452.3,28.2 L452.3,44.2 L452.3,60.2 L452.3,76.2 L452.3,92.2 L452.3,108.2 L452.3,124.2 L452.4,140.2 L452.4,156.3 L452.4,172.3 L452.4,188.3 L452.4,204.3 L452.4,220.3 L452.4,236.3 L452.5,252.2 L452.5,268.2 L452.5,284.2 L452.5,300.2 L452.5,316.2 L452.5,332.2 L452.5,348.2 L452.5,364.2 L452.5,380.2 L452.6,396.2 L452.6,412.2 L452.6,428.2 L452.6,444.2 L452.6,460.2 L452.6,476.2 L452.6,492.1 L452.6,508.1 L452.6,524.1 L452.6,540.1 L452.5,556.1 L452.5,572.1 L452.5,588.1 L452.5,604.1 L452.5,620.1 L452.5,636.1 L452.5,652.0 L452.5,668.0 L452.5,684.0 L452.4,700.0 L452.4,716.0 L452.4,732.0 L452.4,748.0 L452.4,764.0 L452.4,780.0 L452.4,796.0 L452.3,812.0 L452.3,828.0 L452.3,844.0 L452.3,860.0 L452.3,876.0 L452.3,892.0 L452.3,908.0 L452.3,924.0 L452.2,940.0 L452.2,956.0 L452.2,972.0 L452.2,988.0"></path><path d="M504.2,-99.8 L504.2,-83.8 L504.2,-67.8 L504.2,-51.8 L504.2,-35.8 L504.2,-19.7 L504.3,-3.7 L504.3,12.3 L504.3,28.3 L504.3,44.3 L504.3,60.3 L504.3,76.3 L504.3,92.3 L504.4,108.3 L504.4,124.3 L504.4,140.3 L504.4,156.3 L504.4,172.3 L504.5,188.3 L504.5,204.3 L504.5,220.3 L504.5,236.3 L504.5,252.3 L504.5,268.3 L504.6,284.3 L504.6,300.3 L504.6,316.3 L504.6,332.3 L504.6,348.3 L504.6,364.3 L504.7,380.3 L504.7,396.3 L504.7,412.2 L504.7,428.2 L504.7,444.2 L504.7,460.2 L504.7,476.2 L504.7,492.2 L504.7,508.2 L504.7,524.1 L504.7,540.1 L504.7,556.1 L504.6,572.1 L504.6,588.1 L504.6,604.1 L504.6,620.1 L504.6,636.1 L504.6,652.0 L504.6,668.0 L504.5,684.0 L504.5,700.0 L504.5,716.0 L504.5,732.0 L504.5,748.0 L504.4,764.0 L504.4,780.0 L504.4,796.0 L504.4,812.0 L504.4,828.0 L504.4,844.0 L504.3,860.0 L504.3,876.0 L504.3,892.0 L504.3,907.9 L504.3,923.9 L504.3,939.9 L504.3,955.9 L504.2,971.9 L504.2,987.9"></path><path d="M556.2,-99.7 L556.2,-83.7 L556.2,-67.7 L556.2,-51.7 L556.2,-35.7 L556.3,-19.7 L556.3,-3.7 L556.3,12.3 L556.3,28.3 L556.3,44.3 L556.3,60.3 L556.4,76.3 L556.4,92.3 L556.4,108.3 L556.4,124.4 L556.4,140.4 L556.5,156.4 L556.5,172.4 L556.5,188.4 L556.5,204.4 L556.6,220.4 L556.6,236.4 L556.6,252.4 L556.6,268.4 L556.7,284.4 L556.7,300.4 L556.7,316.4 L556.8,332.4 L556.8,348.4 L556.8,364.3 L556.8,380.3 L556.8,396.3 L556.8,412.3 L556.9,428.3 L556.9,444.3 L556.9,460.3 L556.9,476.2 L556.9,492.2 L556.9,508.2 L556.8,524.2 L556.8,540.2 L556.8,556.1 L556.8,572.1 L556.8,588.1 L556.8,604.1 L556.7,620.1 L556.7,636.0 L556.7,652.0 L556.7,668.0 L556.6,684.0 L556.6,700.0 L556.6,716.0 L556.6,732.0 L556.5,748.0 L556.5,764.0 L556.5,780.0 L556.5,796.0 L556.4,811.9 L556.4,827.9 L556.4,843.9 L556.4,859.9 L556.3,875.9 L556.3,891.9 L556.3,907.9 L556.3,923.9 L556.3,939.9 L556.3,955.9 L556.3,971.9 L556.2,987.9"></path><path d="M608.2,-99.7 L608.2,-83.7 L608.2,-67.7 L608.2,-51.7 L608.3,-35.7 L608.3,-19.7 L608.3,-3.7 L608.3,12.4 L608.3,28.4 L608.3,44.4 L608.4,60.4 L608.4,76.4 L608.4,92.4 L608.4,108.4 L608.5,124.4 L608.5,140.4 L608.5,156.4 L608.6,172.5 L608.6,188.5 L608.6,204.5 L608.7,220.5 L608.7,236.5 L608.7,252.5 L608.8,268.5 L608.8,284.5 L608.9,300.5 L608.9,316.5 L608.9,332.5 L609.0,348.5 L609.0,364.5 L609.0,380.4 L609.0,396.4 L609.1,412.4 L609.1,428.4 L609.1,444.4 L609.1,460.3 L609.1,476.3 L609.1,492.3 L609.1,508.2 L609.1,524.2 L609.1,540.2 L609.0,556.2 L609.0,572.1 L609.0,588.1 L608.9,604.1 L608.9,620.1 L608.9,636.0 L608.8,652.0 L608.8,668.0 L608.7,684.0 L608.7,700.0 L608.7,716.0 L608.6,732.0 L608.6,747.9 L608.6,763.9 L608.5,779.9 L608.5,795.9 L608.5,811.9 L608.4,827.9 L608.4,843.9 L608.4,859.9 L608.4,875.9 L608.3,891.9 L608.3,907.9 L608.3,923.9 L608.3,939.9 L608.3,955.9 L608.3,971.9 L608.2,987.9"></path><path d="M660.2,-99.7 L660.2,-83.7 L660.2,-67.7 L660.2,-51.6 L660.3,-35.6 L660.3,-19.6 L660.3,-3.6 L660.3,12.4 L660.3,28.4 L660.4,44.4 L660.4,60.5 L660.4,76.5 L660.4,92.5 L660.5,108.5 L660.5,124.5 L660.5,140.5 L660.6,156.6 L660.6,172.6 L660.7,188.6 L660.7,204.6 L660.8,220.6 L660.8,236.6 L660.9,252.6 L660.9,268.6 L661.0,284.7 L661.1,300.7 L661.1,316.7 L661.2,332.6 L661.2,348.6 L661.3,364.6 L661.3,380.6 L661.4,396.6 L661.4,412.5 L661.4,428.5 L661.5,444.5 L661.5,460.4 L661.5,476.4 L661.5,492.4 L661.4,508.3 L661.4,524.3 L661.4,540.2 L661.3,556.2 L661.3,572.1 L661.2,588.1 L661.2,604.1 L661.1,620.0 L661.1,636.0 L661.0,652.0 L660.9,668.0 L660.9,683.9 L660.8,699.9 L660.8,715.9 L660.7,731.9 L660.7,747.9 L660.6,763.9 L660.6,779.9 L660.6,795.9 L660.5,811.9 L660.5,827.9 L660.4,843.9 L660.4,859.9 L660.4,875.9 L660.4,891.9 L660.3,907.9 L660.3,923.9 L660.3,939.9 L660.3,955.9 L660.3,971.9 L660.2,987.9"></path><path d="M712.2,-99.7 L712.2,-83.6 L712.2,-67.6 L712.2,-51.6 L712.2,-35.6 L712.3,-19.6 L712.3,-3.6 L712.3,12.5 L712.3,28.5 L712.4,44.5 L712.4,60.5 L712.4,76.6 L712.5,92.6 L712.5,108.6 L712.5,124.6 L712.6,140.7 L712.6,156.7 L712.7,172.7 L712.7,188.7 L712.8,204.8 L712.9,220.8 L713.0,236.8 L713.0,252.9 L713.1,268.9 L713.2,284.9 L713.3,300.9 L713.4,316.9 L713.5,332.9 L713.6,348.9 L713.7,364.9 L713.8,380.9 L713.9,396.8 L713.9,412.8 L714.0,428.7 L714.0,444.7 L714.0,460.6 L714.0,476.5 L714.0,492.5 L714.0,508.4 L713.9,524.3 L713.9,540.3 L713.8,556.2 L713.7,572.1 L713.6,588.1 L713.5,604.0 L713.4,620.0 L713.3,636.0 L713.2,651.9 L713.1,667.9 L713.1,683.9 L713.0,699.9 L712.9,715.9 L712.8,731.8 L712.8,747.8 L712.7,763.8 L712.6,779.8 L712.6,795.8 L712.5,811.8 L712.5,827.8 L712.5,843.8 L712.4,859.8 L712.4,875.8 L712.4,891.8 L712.3,907.9 L712.3,923.9 L712.3,939.9 L712.3,955.9 L712.3,971.9 L712.2,987.9"></path><path d="M764.2,-99.6 L764.2,-83.6 L764.2,-67.6 L764.2,-51.6 L764.2,-35.5 L764.2,-19.5 L764.3,-3.5 L764.3,12.5 L764.3,28.6 L764.3,44.6 L764.4,60.6 L764.4,76.7 L764.5,92.7 L764.5,108.7 L764.5,124.8 L764.6,140.8 L764.7,156.9 L764.7,172.9 L764.8,188.9 L764.9,205.0 L765.0,221.0 L765.1,237.1 L765.2,253.2 L765.3,269.2 L765.5,285.2 L765.6,301.3 L765.8,317.3 L766.0,333.3 L766.1,349.4 L766.3,365.4 L766.5,381.3 L766.6,397.3 L766.8,413.2 L766.9,429.1 L767.0,445.0 L767.0,460.9 L767.0,476.8 L767.0,492.7 L766.9,508.5 L766.8,524.4 L766.7,540.3 L766.5,556.2 L766.4,572.1 L766.2,588.0 L766.0,603.9 L765.8,619.9 L765.7,635.8 L765.5,651.8 L765.4,667.8 L765.2,683.8 L765.1,699.8 L765.0,715.8 L764.9,731.8 L764.8,747.8 L764.7,763.8 L764.7,779.8 L764.6,795.8 L764.6,811.8 L764.5,827.8 L764.5,843.8 L764.4,859.8 L764.4,875.8 L764.4,891.8 L764.3,907.8 L764.3,923.8 L764.3,939.8 L764.3,955.8 L764.2,971.8 L764.2,987.9"></path><path d="M816.1,-99.6 L816.2,-83.6 L816.2,-67.5 L816.2,-51.5 L816.2,-35.5 L816.2,-19.5 L816.2,-3.4 L816.3,12.6 L816.3,28.6 L816.3,44.7 L816.3,60.7 L816.4,76.8 L816.4,92.8 L816.5,108.9 L816.5,124.9 L816.6,141.0 L816.6,157.0 L816.7,173.1 L816.8,189.2 L816.9,205.3 L817.0,221.4 L817.2,237.5 L817.3,253.6 L817.5,269.7 L817.7,285.8 L818.0,301.9 L818.3,318.0 L818.6,334.1 L818.9,350.2 L819.3,366.2 L819.6,382.2 L820.0,398.2 L820.3,414.1 L820.6,430.0 L820.8,445.8 L821.0,461.6 L821.0,477.3 L820.9,493.0 L820.7,508.7 L820.4,524.5 L820.1,540.3 L819.7,556.1 L819.3,571.9 L819.0,587.8 L818.6,603.7 L818.3,619.7 L818.0,635.6 L817.8,651.6 L817.6,667.6 L817.4,683.6 L817.2,699.6 L817.1,715.6 L817.0,731.6 L816.8,747.6 L816.7,763.7 L816.7,779.7 L816.6,795.7 L816.5,811.7 L816.5,827.7 L816.4,843.7 L816.4,859.7 L816.4,875.8 L816.3,891.8 L816.3,907.8 L816.3,923.8 L816.2,939.8 L816.2,955.8 L816.2,971.8 L816.2,987.8"></path><path d="M868.1,-99.6 L868.1,-83.5 L868.1,-67.5 L868.1,-51.5 L868.2,-35.5 L868.2,-19.4 L868.2,-3.4 L868.2,12.7 L868.2,28.7 L868.3,44.7 L868.3,60.8 L868.3,76.9 L868.3,92.9 L868.4,109.0 L868.4,125.1 L868.5,141.1 L868.6,157.2 L868.6,173.4 L868.7,189.5 L868.9,205.6 L869.0,221.8 L869.2,237.9 L869.4,254.1 L869.6,270.3 L869.9,286.6 L870.2,302.8 L870.7,319.1 L871.2,335.4 L871.8,351.7 L872.6,367.9 L873.5,384.2 L874.4,400.3 L875.4,416.3 L876.4,432.1 L877.1,447.7 L877.6,463.1 L877.6,478.4 L877.3,493.7 L876.6,509.0 L875.7,524.4 L874.7,539.9 L873.7,555.6 L872.8,571.4 L872.0,587.3 L871.4,603.2 L870.8,619.2 L870.3,635.2 L870.0,651.3 L869.7,667.3 L869.4,683.3 L869.2,699.4 L869.0,715.4 L868.9,731.5 L868.8,747.5 L868.7,763.5 L868.6,779.6 L868.5,795.6 L868.5,811.6 L868.4,827.6 L868.4,843.7 L868.3,859.7 L868.3,875.7 L868.3,891.7 L868.2,907.7 L868.2,923.8 L868.2,939.8 L868.2,955.8 L868.2,971.8 L868.1,987.8"></path><path d="M920.1,-99.5 L920.1,-83.5 L920.1,-67.5 L920.1,-51.5 L920.1,-35.4 L920.1,-19.4 L920.1,-3.3 L920.1,12.7 L920.1,28.7 L920.2,44.8 L920.2,60.9 L920.2,76.9 L920.2,93.0 L920.3,109.1 L920.3,125.2 L920.3,141.3 L920.4,157.4 L920.5,173.6 L920.5,189.7 L920.6,205.9 L920.7,222.1 L920.9,238.4 L921.1,254.7 L921.3,271.1 L921.6,287.5 L922.0,304.0 L922.6,320.7 L923.3,337.4 L924.3,354.3 L925.7,371.4 L927.7,388.6 L930.3,405.9 L933.8,423.0 L938.0,439.6 L939.5,453.7 L940.4,467.3 L940.5,480.8 L939.8,494.4 L938.5,508.3 L934.8,522.8 L931.1,538.1 L928.3,553.9 L926.2,569.9 L924.7,586.1 L923.6,602.3 L922.8,618.4 L922.2,634.6 L921.7,650.8 L921.4,666.9 L921.1,683.0 L920.9,699.1 L920.8,715.2 L920.7,731.3 L920.6,747.4 L920.5,763.4 L920.4,779.5 L920.4,795.5 L920.3,811.6 L920.3,827.6 L920.2,843.6 L920.2,859.6 L920.2,875.7 L920.2,891.7 L920.2,907.7 L920.1,923.7 L920.1,939.8 L920.1,955.8 L920.1,971.8 L920.1,987.8"></path><path d="M972.0,-99.5 L972.0,-83.5 L972.0,-67.5 L972.0,-51.4 L972.0,-35.4 L972.0,-19.4 L972.0,-3.3 L972.0,12.7 L972.1,28.8 L972.1,44.8 L972.1,60.9 L972.1,77.0 L972.1,93.1 L972.1,109.2 L972.1,125.3 L972.1,141.4 L972.2,157.5 L972.2,173.7 L972.2,189.9 L972.2,206.1 L972.3,222.4 L972.4,238.7 L972.4,255.1 L972.6,271.6 L972.7,288.3 L972.9,305.1 L973.2,322.1 L973.7,339.5 L974.4,357.5 L975.6,376.2 L977.6,396.3 L979.3,413.6 L980.9,429.2 L983.4,444.3 L987.0,458.4 L991.3,470.0 L992.1,479.1 L988.1,489.9 L984.2,503.5 L981.4,518.5 L979.6,533.9 L978.3,549.7 L976.0,567.3 L974.6,584.3 L973.8,601.1 L973.3,617.6 L973.0,634.0 L972.8,650.3 L972.6,666.6 L972.5,682.8 L972.4,698.9 L972.3,715.1 L972.3,731.2 L972.2,747.3 L972.2,763.3 L972.2,779.4 L972.1,795.5 L972.1,811.5 L972.1,827.6 L972.1,843.6 L972.1,859.6 L972.1,875.7 L972.1,891.7 L972.1,907.7 L972.1,923.7 L972.0,939.7 L972.0,955.8 L972.0,971.8 L972.0,987.8"></path><path d="M1024.0,-99.5 L1024.0,-83.5 L1024.0,-67.5 L1024.0,-51.4 L1024.0,-35.4 L1024.0,-19.4 L1024.0,-3.3 L1024.0,12.7 L1024.0,28.8 L1023.9,44.8 L1023.9,60.9 L1023.9,77.0 L1023.9,93.1 L1023.9,109.2 L1023.9,125.3 L1023.9,141.4 L1023.9,157.5 L1023.8,173.7 L1023.8,189.9 L1023.8,206.1 L1023.7,222.4 L1023.7,238.7 L1023.6,255.2 L1023.5,271.7 L1023.4,288.3 L1023.2,305.1 L1022.9,322.2 L1022.5,339.6 L1021.9,357.7 L1020.9,376.5 L1019.1,396.9 L1017.7,413.8 L1016.2,429.5 L1013.8,444.8 L1010.1,459.1 L1006.7,470.2 L1006.7,479.1 L1008.9,489.2 L1013.0,503.0 L1015.7,518.1 L1017.3,533.7 L1018.5,549.5 L1020.5,567.1 L1021.7,584.2 L1022.4,601.0 L1022.8,617.6 L1023.1,634.0 L1023.3,650.3 L1023.5,666.6 L1023.6,682.8 L1023.7,698.9 L1023.7,715.1 L1023.8,731.2 L1023.8,747.3 L1023.8,763.3 L1023.9,779.4 L1023.9,795.5 L1023.9,811.5 L1023.9,827.6 L1023.9,843.6 L1023.9,859.6 L1023.9,875.7 L1023.9,891.7 L1024.0,907.7 L1024.0,923.7 L1024.0,939.7 L1024.0,955.8 L1024.0,971.8 L1024.0,987.8"></path><path d="M1075.9,-99.5 L1075.9,-83.5 L1075.9,-67.5 L1075.9,-51.5 L1075.9,-35.4 L1075.9,-19.4 L1075.9,-3.3 L1075.9,12.7 L1075.9,28.8 L1075.8,44.8 L1075.8,60.9 L1075.8,76.9 L1075.8,93.0 L1075.7,109.1 L1075.7,125.2 L1075.7,141.3 L1075.6,157.4 L1075.6,173.6 L1075.5,189.7 L1075.4,205.9 L1075.3,222.2 L1075.1,238.4 L1075.0,254.8 L1074.7,271.1 L1074.4,287.6 L1074.0,304.1 L1073.5,320.8 L1072.7,337.6 L1071.7,354.6 L1070.2,371.7 L1068.2,389.1 L1065.4,406.6 L1061.5,424.0 L1058.0,439.9 L1056.6,453.9 L1055.7,467.4 L1055.6,480.7 L1056.3,494.2 L1057.7,508.1 L1060.4,522.5 L1064.5,537.8 L1067.6,553.7 L1069.8,569.7 L1071.4,585.9 L1072.5,602.2 L1073.3,618.4 L1073.9,634.6 L1074.3,650.7 L1074.7,666.9 L1074.9,683.0 L1075.1,699.1 L1075.2,715.2 L1075.4,731.3 L1075.5,747.4 L1075.5,763.4 L1075.6,779.5 L1075.7,795.5 L1075.7,811.6 L1075.7,827.6 L1075.8,843.6 L1075.8,859.6 L1075.8,875.7 L1075.8,891.7 L1075.9,907.7 L1075.9,923.7 L1075.9,939.8 L1075.9,955.8 L1075.9,971.8 L1075.9,987.8"></path><path d="M1127.9,-99.6 L1127.9,-83.5 L1127.9,-67.5 L1127.9,-51.5 L1127.8,-35.5 L1127.8,-19.4 L1127.8,-3.4 L1127.8,12.7 L1127.8,28.7 L1127.8,44.8 L1127.7,60.8 L1127.7,76.9 L1127.7,92.9 L1127.6,109.0 L1127.6,125.1 L1127.5,141.2 L1127.4,157.3 L1127.4,173.4 L1127.3,189.5 L1127.2,205.6 L1127.0,221.8 L1126.9,238.0 L1126.7,254.2 L1126.4,270.4 L1126.1,286.6 L1125.8,302.9 L1125.3,319.2 L1124.8,335.5 L1124.1,351.8 L1123.3,368.1 L1122.4,384.4 L1121.3,400.6 L1120.2,416.6 L1119.2,432.4 L1118.3,448.0 L1117.8,463.3 L1117.8,478.6 L1118.2,493.7 L1119.0,509.0 L1120.0,524.3 L1121.1,539.9 L1122.1,555.5 L1123.1,571.3 L1123.9,587.2 L1124.6,603.2 L1125.2,619.2 L1125.6,635.2 L1126.0,651.2 L1126.3,667.3 L1126.6,683.3 L1126.8,699.4 L1127.0,715.4 L1127.1,731.4 L1127.2,747.5 L1127.3,763.5 L1127.4,779.6 L1127.5,795.6 L1127.6,811.6 L1127.6,827.6 L1127.6,843.7 L1127.7,859.7 L1127.7,875.7 L1127.7,891.7 L1127.8,907.7 L1127.8,923.8 L1127.8,939.8 L1127.8,955.8 L1127.8,971.8 L1127.9,987.8"></path><path d="M1179.9,-99.6 L1179.8,-83.6 L1179.8,-67.5 L1179.8,-51.5 L1179.8,-35.5 L1179.8,-19.5 L1179.8,-3.4 L1179.7,12.6 L1179.7,28.6 L1179.7,44.7 L1179.7,60.7 L1179.6,76.8 L1179.6,92.8 L1179.5,108.9 L1179.5,124.9 L1179.4,141.0 L1179.4,157.1 L1179.3,173.1 L1179.2,189.2 L1179.1,205.3 L1179.0,221.4 L1178.8,237.5 L1178.6,253.6 L1178.5,269.7 L1178.2,285.8 L1178.0,302.0 L1177.7,318.1 L1177.4,334.2 L1177.0,350.2 L1176.7,366.3 L1176.3,382.3 L1175.9,398.3 L1175.5,414.2 L1175.2,430.1 L1174.9,445.9 L1174.8,461.6 L1174.8,477.4 L1174.9,493.1 L1175.1,508.8 L1175.4,524.5 L1175.8,540.3 L1176.2,556.1 L1176.6,571.9 L1176.9,587.8 L1177.3,603.7 L1177.6,619.6 L1177.9,635.6 L1178.2,651.6 L1178.4,667.6 L1178.6,683.6 L1178.8,699.6 L1178.9,715.6 L1179.0,731.6 L1179.2,747.6 L1179.3,763.6 L1179.3,779.7 L1179.4,795.7 L1179.5,811.7 L1179.5,827.7 L1179.6,843.7 L1179.6,859.7 L1179.7,875.8 L1179.7,891.8 L1179.7,907.8 L1179.7,923.8 L1179.8,939.8 L1179.8,955.8 L1179.8,971.8 L1179.8,987.8"></path><path d="M1231.8,-99.6 L1231.8,-83.6 L1231.8,-67.6 L1231.8,-51.6 L1231.8,-35.5 L1231.8,-19.5 L1231.7,-3.5 L1231.7,12.5 L1231.7,28.6 L1231.7,44.6 L1231.6,60.6 L1231.6,76.7 L1231.5,92.7 L1231.5,108.7 L1231.5,124.8 L1231.4,140.8 L1231.3,156.9 L1231.3,172.9 L1231.2,189.0 L1231.1,205.0 L1231.0,221.1 L1230.9,237.1 L1230.8,253.2 L1230.6,269.2 L1230.5,285.3 L1230.3,301.3 L1230.2,317.4 L1230.0,333.4 L1229.8,349.4 L1229.6,365.4 L1229.4,381.4 L1229.3,397.3 L1229.1,413.3 L1229.0,429.2 L1228.9,445.1 L1228.9,461.0 L1228.9,476.8 L1228.9,492.7 L1229.0,508.6 L1229.1,524.4 L1229.2,540.3 L1229.4,556.2 L1229.6,572.1 L1229.8,588.0 L1230.0,603.9 L1230.1,619.9 L1230.3,635.8 L1230.5,651.8 L1230.6,667.8 L1230.7,683.8 L1230.9,699.8 L1231.0,715.7 L1231.1,731.7 L1231.2,747.7 L1231.3,763.7 L1231.3,779.8 L1231.4,795.8 L1231.4,811.8 L1231.5,827.8 L1231.5,843.8 L1231.6,859.8 L1231.6,875.8 L1231.6,891.8 L1231.7,907.8 L1231.7,923.8 L1231.7,939.8 L1231.7,955.8 L1231.8,971.8 L1231.8,987.8"></path><path d="M1283.8,-99.7 L1283.8,-83.6 L1283.8,-67.6 L1283.8,-51.6 L1283.8,-35.6 L1283.7,-19.6 L1283.7,-3.5 L1283.7,12.5 L1283.7,28.5 L1283.6,44.5 L1283.6,60.5 L1283.6,76.6 L1283.5,92.6 L1283.5,108.6 L1283.5,124.6 L1283.4,140.7 L1283.4,156.7 L1283.3,172.7 L1283.2,188.8 L1283.2,204.8 L1283.1,220.8 L1283.0,236.8 L1282.9,252.9 L1282.9,268.9 L1282.8,284.9 L1282.7,300.9 L1282.6,316.9 L1282.5,332.9 L1282.4,348.9 L1282.3,364.9 L1282.2,380.9 L1282.1,396.9 L1282.0,412.8 L1282.0,428.8 L1281.9,444.7 L1281.9,460.6 L1281.9,476.6 L1281.9,492.5 L1282.0,508.4 L1282.0,524.3 L1282.1,540.3 L1282.2,556.2 L1282.2,572.1 L1282.3,588.1 L1282.4,604.0 L1282.5,620.0 L1282.6,635.9 L1282.7,651.9 L1282.8,667.9 L1282.9,683.9 L1283.0,699.9 L1283.1,715.8 L1283.2,731.8 L1283.2,747.8 L1283.3,763.8 L1283.4,779.8 L1283.4,795.8 L1283.5,811.8 L1283.5,827.8 L1283.5,843.8 L1283.6,859.8 L1283.6,875.8 L1283.6,891.8 L1283.7,907.9 L1283.7,923.9 L1283.7,939.9 L1283.7,955.9 L1283.7,971.9 L1283.8,987.9"></path><path d="M1335.8,-99.7 L1335.8,-83.7 L1335.8,-67.7 L1335.8,-51.6 L1335.7,-35.6 L1335.7,-19.6 L1335.7,-3.6 L1335.7,12.4 L1335.7,28.4 L1335.6,44.4 L1335.6,60.5 L1335.6,76.5 L1335.6,92.5 L1335.5,108.5 L1335.5,124.5 L1335.5,140.5 L1335.4,156.6 L1335.4,172.6 L1335.3,188.6 L1335.3,204.6 L1335.2,220.6 L1335.2,236.6 L1335.1,252.7 L1335.1,268.7 L1335.0,284.7 L1334.9,300.7 L1334.9,316.7 L1334.8,332.7 L1334.8,348.7 L1334.7,364.6 L1334.6,380.6 L1334.6,396.6 L1334.6,412.6 L1334.5,428.5 L1334.5,444.5 L1334.5,460.4 L1334.5,476.4 L1334.5,492.4 L1334.5,508.3 L1334.6,524.3 L1334.6,540.2 L1334.6,556.2 L1334.7,572.1 L1334.7,588.1 L1334.8,604.1 L1334.9,620.0 L1334.9,636.0 L1335.0,652.0 L1335.0,668.0 L1335.1,683.9 L1335.2,699.9 L1335.2,715.9 L1335.3,731.9 L1335.3,747.9 L1335.4,763.9 L1335.4,779.9 L1335.4,795.9 L1335.5,811.9 L1335.5,827.9 L1335.6,843.9 L1335.6,859.9 L1335.6,875.9 L1335.6,891.9 L1335.7,907.9 L1335.7,923.9 L1335.7,939.9 L1335.7,955.9 L1335.7,971.9 L1335.8,987.9"></path><path d="M1387.8,-99.7 L1387.8,-83.7 L1387.8,-67.7 L1387.8,-51.7 L1387.7,-35.7 L1387.7,-19.7 L1387.7,-3.7 L1387.7,12.4 L1387.7,28.4 L1387.7,44.4 L1387.6,60.4 L1387.6,76.4 L1387.6,92.4 L1387.6,108.4 L1387.5,124.4 L1387.5,140.4 L1387.5,156.5 L1387.4,172.5 L1387.4,188.5 L1387.4,204.5 L1387.3,220.5 L1387.3,236.5 L1387.3,252.5 L1387.2,268.5 L1387.2,284.5 L1387.1,300.5 L1387.1,316.5 L1387.1,332.5 L1387.0,348.5 L1387.0,364.5 L1387.0,380.4 L1386.9,396.4 L1386.9,412.4 L1386.9,428.4 L1386.9,444.4 L1386.9,460.3 L1386.9,476.3 L1386.9,492.3 L1386.9,508.2 L1386.9,524.2 L1386.9,540.2 L1387.0,556.2 L1387.0,572.1 L1387.0,588.1 L1387.0,604.1 L1387.1,620.1 L1387.1,636.0 L1387.2,652.0 L1387.2,668.0 L1387.2,684.0 L1387.3,700.0 L1387.3,716.0 L1387.4,731.9 L1387.4,747.9 L1387.4,763.9 L1387.5,779.9 L1387.5,795.9 L1387.5,811.9 L1387.6,827.9 L1387.6,843.9 L1387.6,859.9 L1387.6,875.9 L1387.7,891.9 L1387.7,907.9 L1387.7,923.9 L1387.7,939.9 L1387.7,955.9 L1387.7,971.9 L1387.8,987.9"></path><path d="M1439.8,-99.7 L1439.8,-83.7 L1439.8,-67.7 L1439.8,-51.7 L1439.8,-35.7 L1439.7,-19.7 L1439.7,-3.7 L1439.7,12.3 L1439.7,28.3 L1439.7,44.3 L1439.7,60.3 L1439.6,76.3 L1439.6,92.3 L1439.6,108.4 L1439.6,124.4 L1439.6,140.4 L1439.5,156.4 L1439.5,172.4 L1439.5,188.4 L1439.5,204.4 L1439.4,220.4 L1439.4,236.4 L1439.4,252.4 L1439.3,268.4 L1439.3,284.4 L1439.3,300.4 L1439.3,316.4 L1439.2,332.4 L1439.2,348.4 L1439.2,364.4 L1439.2,380.3 L1439.2,396.3 L1439.1,412.3 L1439.1,428.3 L1439.1,444.3 L1439.1,460.3 L1439.1,476.2 L1439.1,492.2 L1439.1,508.2 L1439.1,524.2 L1439.2,540.2 L1439.2,556.1 L1439.2,572.1 L1439.2,588.1 L1439.2,604.1 L1439.3,620.1 L1439.3,636.0 L1439.3,652.0 L1439.3,668.0 L1439.4,684.0 L1439.4,700.0 L1439.4,716.0 L1439.4,732.0 L1439.5,748.0 L1439.5,764.0 L1439.5,780.0 L1439.5,795.9 L1439.6,811.9 L1439.6,827.9 L1439.6,843.9 L1439.6,859.9 L1439.7,875.9 L1439.7,891.9 L1439.7,907.9 L1439.7,923.9 L1439.7,939.9 L1439.7,955.9 L1439.7,971.9 L1439.8,987.9"></path><path d="M1491.8,-99.8 L1491.8,-83.8 L1491.8,-67.8 L1491.8,-51.8 L1491.8,-35.8 L1491.8,-19.7 L1491.7,-3.7 L1491.7,12.3 L1491.7,28.3 L1491.7,44.3 L1491.7,60.3 L1491.7,76.3 L1491.6,92.3 L1491.6,108.3 L1491.6,124.3 L1491.6,140.3 L1491.6,156.3 L1491.6,172.3 L1491.5,188.3 L1491.5,204.3 L1491.5,220.3 L1491.5,236.3 L1491.5,252.3 L1491.4,268.3 L1491.4,284.3 L1491.4,300.3 L1491.4,316.3 L1491.4,332.3 L1491.4,348.3 L1491.3,364.3 L1491.3,380.3 L1491.3,396.3 L1491.3,412.2 L1491.3,428.2 L1491.3,444.2 L1491.3,460.2 L1491.3,476.2 L1491.3,492.2 L1491.3,508.2 L1491.3,524.1 L1491.3,540.1 L1491.3,556.1 L1491.3,572.1 L1491.4,588.1 L1491.4,604.1 L1491.4,620.1 L1491.4,636.1 L1491.4,652.0 L1491.4,668.0 L1491.5,684.0 L1491.5,700.0 L1491.5,716.0 L1491.5,732.0 L1491.5,748.0 L1491.6,764.0 L1491.6,780.0 L1491.6,796.0 L1491.6,812.0 L1491.6,828.0 L1491.6,844.0 L1491.7,860.0 L1491.7,876.0 L1491.7,891.9 L1491.7,907.9 L1491.7,923.9 L1491.7,939.9 L1491.7,955.9 L1491.8,971.9 L1491.8,987.9"></path><path d="M1543.8,-99.8 L1543.8,-83.8 L1543.8,-67.8 L1543.8,-51.8 L1543.8,-35.8 L1543.8,-19.8 L1543.8,-3.8 L1543.7,12.2 L1543.7,28.2 L1543.7,44.2 L1543.7,60.2 L1543.7,76.2 L1543.7,92.2 L1543.7,108.2 L1543.7,124.3 L1543.6,140.3 L1543.6,156.3 L1543.6,172.3 L1543.6,188.3 L1543.6,204.3 L1543.6,220.3 L1543.6,236.3 L1543.5,252.3 L1543.5,268.3 L1543.5,284.2 L1543.5,300.2 L1543.5,316.2 L1543.5,332.2 L1543.5,348.2 L1543.5,364.2 L1543.4,380.2 L1543.4,396.2 L1543.4,412.2 L1543.4,428.2 L1543.4,444.2 L1543.4,460.2 L1543.4,476.2 L1543.4,492.1 L1543.4,508.1 L1543.4,524.1 L1543.4,540.1 L1543.4,556.1 L1543.5,572.1 L1543.5,588.1 L1543.5,604.1 L1543.5,620.1 L1543.5,636.1 L1543.5,652.0 L1543.5,668.0 L1543.5,684.0 L1543.6,700.0 L1543.6,716.0 L1543.6,732.0 L1543.6,748.0 L1543.6,764.0 L1543.6,780.0 L1543.6,796.0 L1543.7,812.0 L1543.7,828.0 L1543.7,844.0 L1543.7,860.0 L1543.7,876.0 L1543.7,892.0 L1543.7,908.0 L1543.7,924.0 L1543.8,940.0 L1543.8,956.0 L1543.8,972.0 L1543.8,988.0"></path><path d="M1595.8,-99.8 L1595.8,-83.8 L1595.8,-67.8 L1595.8,-51.8 L1595.8,-35.8 L1595.8,-19.8 L1595.8,-3.8 L1595.8,12.2 L1595.8,28.2 L1595.7,44.2 L1595.7,60.2 L1595.7,76.2 L1595.7,92.2 L1595.7,108.2 L1595.7,124.2 L1595.7,140.2 L1595.7,156.2 L1595.7,172.2 L1595.6,188.2 L1595.6,204.2 L1595.6,220.2 L1595.6,236.2 L1595.6,252.2 L1595.6,268.2 L1595.6,284.2 L1595.6,300.2 L1595.6,316.2 L1595.6,332.2 L1595.6,348.2 L1595.5,364.2 L1595.5,380.2 L1595.5,396.2 L1595.5,412.2 L1595.5,428.2 L1595.5,444.1 L1595.5,460.1 L1595.5,476.1 L1595.5,492.1 L1595.5,508.1 L1595.5,524.1 L1595.5,540.1 L1595.5,556.1 L1595.5,572.1 L1595.5,588.1 L1595.6,604.1 L1595.6,620.1 L1595.6,636.1 L1595.6,652.0 L1595.6,668.0 L1595.6,684.0 L1595.6,700.0 L1595.6,716.0 L1595.6,732.0 L1595.6,748.0 L1595.7,764.0 L1595.7,780.0 L1595.7,796.0 L1595.7,812.0 L1595.7,828.0 L1595.7,844.0 L1595.7,860.0 L1595.7,876.0 L1595.7,892.0 L1595.7,908.0 L1595.8,924.0 L1595.8,940.0 L1595.8,956.0 L1595.8,972.0 L1595.8,988.0"></path><path d="M1647.8,-99.8 L1647.8,-83.8 L1647.8,-67.8 L1647.8,-51.8 L1647.8,-35.8 L1647.8,-19.8 L1647.8,-3.8 L1647.8,12.2 L1647.8,28.2 L1647.8,44.2 L1647.8,60.2 L1647.7,76.2 L1647.7,92.2 L1647.7,108.2 L1647.7,124.2 L1647.7,140.2 L1647.7,156.2 L1647.7,172.2 L1647.7,188.2 L1647.7,204.2 L1647.7,220.2 L1647.7,236.2 L1647.7,252.2 L1647.6,268.2 L1647.6,284.2 L1647.6,300.2 L1647.6,316.2 L1647.6,332.2 L1647.6,348.2 L1647.6,364.1 L1647.6,380.1 L1647.6,396.1 L1647.6,412.1 L1647.6,428.1 L1647.6,444.1 L1647.6,460.1 L1647.6,476.1 L1647.6,492.1 L1647.6,508.1 L1647.6,524.1 L1647.6,540.1 L1647.6,556.1 L1647.6,572.1 L1647.6,588.1 L1647.6,604.1 L1647.6,620.1 L1647.6,636.0 L1647.6,652.0 L1647.6,668.0 L1647.7,684.0 L1647.7,700.0 L1647.7,716.0 L1647.7,732.0 L1647.7,748.0 L1647.7,764.0 L1647.7,780.0 L1647.7,796.0 L1647.7,812.0 L1647.7,828.0 L1647.7,844.0 L1647.7,860.0 L1647.8,876.0 L1647.8,892.0 L1647.8,908.0 L1647.8,924.0 L1647.8,940.0 L1647.8,956.0 L1647.8,972.0 L1647.8,988.0"></path><path d="M1699.8,-99.9 L1699.8,-83.9 L1699.8,-67.9 L1699.8,-51.9 L1699.8,-35.9 L1699.8,-19.9 L1699.8,-3.9 L1699.8,12.2 L1699.8,28.2 L1699.8,44.2 L1699.8,60.2 L1699.8,76.2 L1699.8,92.2 L1699.8,108.2 L1699.8,124.2 L1699.7,140.2 L1699.7,156.2 L1699.7,172.2 L1699.7,188.2 L1699.7,204.2 L1699.7,220.2 L1699.7,236.1 L1699.7,252.1 L1699.7,268.1 L1699.7,284.1 L1699.7,300.1 L1699.7,316.1 L1699.7,332.1 L1699.7,348.1 L1699.7,364.1 L1699.7,380.1 L1699.7,396.1 L1699.7,412.1 L1699.7,428.1 L1699.7,444.1 L1699.7,460.1 L1699.7,476.1 L1699.7,492.1 L1699.7,508.1 L1699.7,524.1 L1699.7,540.1 L1699.7,556.1 L1699.7,572.1 L1699.7,588.1 L1699.7,604.1 L1699.7,620.0 L1699.7,636.0 L1699.7,652.0 L1699.7,668.0 L1699.7,684.0 L1699.7,700.0 L1699.7,716.0 L1699.7,732.0 L1699.7,748.0 L1699.7,764.0 L1699.7,780.0 L1699.7,796.0 L1699.7,812.0 L1699.8,828.0 L1699.8,844.0 L1699.8,860.0 L1699.8,876.0 L1699.8,892.0 L1699.8,908.0 L1699.8,924.0 L1699.8,940.0 L1699.8,956.0 L1699.8,972.0 L1699.8,988.0"></path></g><g fill="#8AE3FF"><circle cx="372.5" cy="362.6" r="1.46" opacity="0.41"></circle><circle cx="578.5" cy="636.0" r="2.21" opacity="0.70"></circle><circle cx="783.8" cy="909.3" r="1.25" opacity="0.43"></circle><circle cx="989.3" cy="205.1" r="2.00" opacity="0.72"></circle><circle cx="1190.5" cy="477.7" r="1.04" opacity="0.45"></circle><circle cx="1400.1" cy="750.0" r="1.79" opacity="0.74"></circle><circle cx="1606.2" cy="43.7" r="2.54" opacity="0.47"></circle><circle cx="92.4" cy="317.1" r="1.58" opacity="0.76"></circle><circle cx="298.2" cy="590.6" r="2.33" opacity="0.49"></circle><circle cx="504.0" cy="864.0" r="1.37" opacity="0.78"></circle><circle cx="710.0" cy="158.3" r="2.12" opacity="0.51"></circle><circle cx="932.4" cy="441.4" r="1.16" opacity="0.80"></circle><circle cx="1119.7" cy="703.9" r="1.91" opacity="0.53"></circle><circle cx="1326.3" cy="-1.5" r="0.96" opacity="0.27"></circle><circle cx="1531.8" cy="271.9" r="1.70" opacity="0.55"></circle><circle cx="18.2" cy="545.2" r="2.45" opacity="0.29"></circle><circle cx="224.0" cy="818.7" r="1.49" opacity="0.57"></circle><circle cx="429.8" cy="112.4" r="2.24" opacity="0.31"></circle><circle cx="636.4" cy="386.2" r="1.28" opacity="0.59"></circle><circle cx="842.7" cy="658.6" r="2.03" opacity="0.33"></circle><circle cx="1046.6" cy="932.4" r="1.07" opacity="0.61"></circle><circle cx="1251.4" cy="227.2" r="1.82" opacity="0.35"></circle><circle cx="1457.3" cy="499.9" r="2.57" opacity="0.63"></circle><circle cx="-56.0" cy="773.2" r="1.61" opacity="0.37"></circle><circle cx="149.8" cy="66.9" r="2.36" opacity="0.65"></circle><circle cx="355.7" cy="340.4" r="1.40" opacity="0.39"></circle><circle cx="561.8" cy="613.8" r="2.15" opacity="0.67"></circle><circle cx="767.2" cy="887.1" r="1.19" opacity="0.41"></circle><circle cx="972.7" cy="182.6" r="1.94" opacity="0.69"></circle><circle cx="1173.0" cy="456.1" r="0.98" opacity="0.43"></circle><circle cx="1383.4" cy="727.8" r="1.73" opacity="0.71"></circle><circle cx="1589.5" cy="21.5" r="2.48" opacity="0.45"></circle><circle cx="75.7" cy="294.9" r="1.52" opacity="0.73"></circle><circle cx="281.5" cy="568.4" r="2.27" opacity="0.47"></circle></g></g></svg>